<?xml version="1.0" encoding="utf-8"?>
<!-- Generator: Adobe Illustrator 21.0.2, SVG Export Plug-In . SVG Version: 6.00 Build 0)  -->
<svg version="1.1" id="Capa_1" xmlns="http://www.w3.org/2000/svg" xmlns:xlink="http://www.w3.org/1999/xlink" x="0px" y="0px"
	 viewBox="0 0 80 110" style="enable-background:new 0 0 80 110;" xml:space="preserve">
<style type="text/css">
	.st0{fill:#7757D2;}
	.st1{fill:#89E5D5;}
	.st2{fill:#F1FFCE;}
	.st3{fill:#FF5F87;}
</style>
<g>
	<path class="st0" d="M-339.9,484.7c-22.7,0-45.2,0-67.9,0c0.7,1,1.4,1.8,2,2.7c0.3,0.5,0.6,1,0.8,1.6c1.1,4.9,2.1,9.8,3.1,14.7
		c0.7,3.4,1.5,6.9,2.3,10.3c0.9,4.4,1.9,8.8,2.8,13.2c0.2,0.9,0.6,1.2,1.5,1.2c14.3,0,28.6,0,43,0c1.7,0,1.7,0,2.1-1.8
		c0.9-4.3,1.8-8.5,2.7-12.8c0.7-3.6,1.5-7.2,2.2-10.8c0.9-4.4,1.8-8.7,2.7-13.1c0.2-1.2,0.7-2.3,1.5-3.2
		C-340.8,486.1-340.4,485.4-339.9,484.7z"/>
	<path class="st0" d="M-339.9,484.7c-0.5,0.7-0.9,1.4-1.4,2c-0.8,0.9-1.3,1.9-1.5,3.2c-0.8,4.4-1.8,8.7-2.7,13.1
		c-0.7,3.6-1.5,7.2-2.2,10.8c-0.9,4.3-1.8,8.6-2.7,12.8c-0.4,1.8-0.4,1.8-2.1,1.8c-14.3,0-28.6,0-43,0c-0.9,0-1.3-0.3-1.5-1.2
		c-0.9-4.4-1.8-8.8-2.8-13.2c-0.7-3.4-1.5-6.9-2.3-10.3c-1.1-4.9-2.1-9.8-3.1-14.7c-0.1-0.6-0.4-1.1-0.8-1.6c-0.6-0.9-1.2-1.7-2-2.7
		C-385.1,484.7-362.6,484.7-339.9,484.7z"/>
</g>
<path class="st1" d="M-343.5,485.4c-0.1,0.1-0.3,0.1-0.3-0.1c-3.5-14.3-12.2-16.8-22-19.2c-9.9-2.5-12.8-5-12.8-5
	c-8.9-5.5-2.7-14-0.6-16.4c0.1-0.1-0.1-0.3-0.2-0.2c-9.7,5.3-10.2,9.6-10.2,9.6c-0.2,0.9-0.2,1.8-0.2,2.6
	c0,11.1,13.6,12.4,13.6,12.4c18.1,4.6,22.6,11.8,23.6,13.9c0.1,0.2-0.2,0.3-0.3,0.2c-3.3-2.9-8.3-5-12.4-6.4
	c-4.1-1.4-7.4-2.1-7.4-2.1c-18.5-2.7-21.7-12.1-22.1-13.8c0-0.1-0.2-0.2-0.3-0.1c-5.5,4.6-5.5,9.9-4.7,13.3c0.6,2.3,2.3,4.3,4.7,5.4
	c16.6,7.6,43.2,4.8,47.3,4.3c0.2,0,0.3,0.2,0.1,0.3c-9.3,6.8-32.1,4.6-45.8,0.2c-0.7,0.5-3.1,2.2-6.3,2.1c-3.8-0.1-5.1-2.9-5.1-2.9
	c2.3,0.8,4.8-0.2,6.4-1.1c-3.1-1.4-5.2-2.8-5.9-4.2c-1-2.1-1.4-4.1-1.5-6c-0.2-4,1-7.9,3.4-11.3c6.5-9.4,13.4-15.7,20.8-20.8
	c6.5-4.4,9.3-8.5,10.2-10c0.1-0.1,0.3-0.1,0.3,0.1c0.2,8,3.4,12.4,4.7,13.9c0.4,0.3,0.7,0.6,1.1,0.9c16.9,9.9,15.5,18.1,14.8,19.9
	c-0.1,0.1-0.3,0.1-0.3,0c-3.8-9.4-11.3-12.6-12.5-13.1c-0.2-0.1-0.3-0.1-0.4-0.2c-6.2-3-8.2-6.1-8.4-7.1c0-0.1-0.2-0.1-0.3-0.1
	c-14.8,11.4-1.5,14.9-1.5,14.9c19.2,5,23.3,8.5,23.3,8.5C-338.3,477-342.4,484-343.5,485.4z"/>
<g>
	<path class="st2" d="M-390.5,519.2c3.7,0.3,6.9-0.7,10-2.9c-2-0.1-3.6-0.9-4.9-2.2c-0.7-0.7-1.2-1.5-1.5-2.6c1,0,1.9,0,2.9,0
		c0,0,0-0.1,0-0.1c-3.3-1-5.1-3.2-5.3-6.8c1,0.4,1.9,0.8,3.1,0.8c-1.8-1.4-2.8-3.1-3-5.3c-0.1-1.3,0.2-2.6,0.9-3.8
		c3.7,4.4,8.4,6.8,14.1,7.2c0-0.3-0.1-0.6-0.1-0.9c-0.4-3.8,2.4-7.2,6.2-7.5c2.1-0.2,3.9,0.5,5.4,1.9c0.1,0.1,0.4,0.2,0.5,0.2
		c1.3-0.2,2.5-0.7,3.6-1.3c0.1-0.1,0.2-0.1,0.4-0.2c-0.5,1.6-1.5,2.8-2.8,3.7c0.4-0.1,0.8-0.1,1.2-0.2c0.4-0.1,0.8-0.2,1.2-0.3
		c0.4-0.1,0.8-0.3,1.3-0.4c-0.4,0.5-0.8,1.1-1.3,1.6c-0.5,0.6-1.1,1.1-1.7,1.6c-0.2,0.2-0.3,0.4-0.3,0.7c0,4.5-1.2,8.6-3.9,12.2
		c-3.1,4.3-7.3,6.8-12.5,7.6c-4.7,0.7-9.1-0.1-13.2-2.5C-390.2,519.4-390.4,519.3-390.5,519.2z"/>
</g>
<g>
	<path class="st0" d="M73.5,60.7c-22.7,0-45.2,0-67.9,0c0.7,1,1.4,1.8,2,2.7c0.3,0.5,0.6,1,0.8,1.6c1.1,4.9,2.1,9.8,3.1,14.7
		c0.7,3.4,1.5,6.9,2.3,10.3c0.9,4.4,1.9,8.8,2.8,13.2c0.2,0.9,0.6,1.2,1.5,1.2c14.3,0,28.6,0,43,0c1.7,0,1.7,0,2.1-1.8
		c0.9-4.3,1.8-8.5,2.7-12.8c0.7-3.6,1.5-7.2,2.2-10.8c0.9-4.4,1.8-8.7,2.7-13.1c0.2-1.2,0.7-2.3,1.5-3.2
		C72.6,62.1,73,61.4,73.5,60.7z"/>
	<path class="st0" d="M73.5,60.7c-0.5,0.7-0.9,1.4-1.4,2c-0.8,0.9-1.3,1.9-1.5,3.2c-0.8,4.4-1.8,8.7-2.7,13.1
		c-0.7,3.6-1.5,7.2-2.2,10.8c-0.9,4.3-1.8,8.6-2.7,12.8c-0.4,1.8-0.4,1.8-2.1,1.8c-14.3,0-28.6,0-43,0c-0.9,0-1.3-0.3-1.5-1.2
		c-0.9-4.4-1.8-8.8-2.8-13.2c-0.7-3.4-1.5-6.9-2.3-10.3c-1.1-4.9-2.1-9.8-3.1-14.7c-0.1-0.6-0.4-1.1-0.8-1.6c-0.6-0.9-1.2-1.7-2-2.7
		C28.3,60.7,50.8,60.7,73.5,60.7z"/>
</g>
<path class="st3" d="M69.9,61.4c-0.1,0.1-0.3,0.1-0.3-0.1c-3.5-14.3-12.2-16.8-22-19.2c-9.9-2.5-12.8-5-12.8-5
	c-8.9-5.5-2.7-14-0.6-16.4c0.1-0.1-0.1-0.3-0.2-0.2c-9.7,5.3-10.2,9.6-10.2,9.6c-0.2,0.9-0.2,1.8-0.2,2.6
	c0,11.1,13.6,12.4,13.6,12.4c18.1,4.6,22.6,11.8,23.6,13.9c0.1,0.2-0.2,0.3-0.3,0.2c-3.3-2.9-8.3-5-12.4-6.4
	c-4.1-1.4-7.4-2.1-7.4-2.1C22.1,47.9,19,38.5,18.6,36.9c0-0.1-0.2-0.2-0.3-0.1c-5.5,4.6-5.5,9.9-4.7,13.3c0.6,2.3,2.3,4.3,4.7,5.4
	C35,63,61.5,60.3,65.7,59.8c0.2,0,0.3,0.2,0.1,0.3c-9.3,6.8-32.1,4.6-45.8,0.2c-0.7,0.5-3.1,2.2-6.3,2.1c-3.8-0.1-5.1-2.9-5.1-2.9
	c2.3,0.8,4.8-0.2,6.4-1.1C12,57,9.9,55.6,9.2,54.2c-1-2.1-1.4-4.1-1.5-6c-0.2-4,1-7.9,3.4-11.3c6.5-9.4,13.4-15.7,20.8-20.8
	c6.5-4.4,9.3-8.5,10.2-10c0.1-0.1,0.3-0.1,0.3,0.1c0.2,8,3.4,12.4,4.7,13.9c0.4,0.3,0.7,0.6,1.1,0.9C65,30.8,63.6,39,62.9,40.8
	c-0.1,0.1-0.3,0.1-0.3,0c-3.8-9.4-11.3-12.6-12.5-13.1c-0.2-0.1-0.3-0.1-0.4-0.2c-6.2-3-8.2-6.1-8.4-7.1c0-0.1-0.2-0.1-0.3-0.1
	c-14.8,11.4-1.5,14.9-1.5,14.9c19.2,5,23.3,8.5,23.3,8.5C75.2,53,71,60,69.9,61.4z"/>
<g>
	<path class="st2" d="M49,75.3c-1.1,0-2.2,0-3.2,0c-1.1,0.1-2.2,0.5-2.3,1.7c-0.1,1.7,0,3.4,0,5.2h6.2c-0.2,1.9-0.5,3.7-0.7,5.5
		c-0.1,1-0.5,1.3-1.4,1.2c-1.4-0.1-2.8,0-4.2,0v15.5h-7.1V88.9c-1.5,0-2.9,0-4.3,0c-0.7,0-1.1-0.2-1-1c0-1.6,0-3.2,0-4.7
		c0-0.8,0.3-1,1-1c1.4,0,2.9,0,4.3,0c0.1-0.3,0.1-0.5,0.1-0.6c0.1-1.9,0-3.8,0.2-5.7c0.3-2.8,1.8-5,4.5-6.1c2.7-1.1,5.5-0.7,8.2-0.5
		c0.2,0,0.5,0.5,0.5,0.8c0.1,1.5,0,2.9,0,4.4C49.9,75.1,49.7,75.3,49,75.3z"/>
</g>
</svg>
