<?xml version="1.0" encoding="utf-8"?>
<!-- Generator: Adobe Illustrator 21.0.2, SVG Export Plug-In . SVG Version: 6.00 Build 0)  -->
<svg version="1.1" id="Capa_1" xmlns="http://www.w3.org/2000/svg" xmlns:xlink="http://www.w3.org/1999/xlink" x="0px" y="0px"
	 viewBox="0 0 370 1143" style="enable-background:new 0 0 370 1143;" xml:space="preserve">
<style type="text/css">
	.st0{fill:#F1FFCE;}
	.st1{fill:#FFFFFF;}
</style>
<rect x="-1" class="st0" width="370" height="1143"/>
<g>
	<polygon class="st1" points="16.8,2.8 42.6,11.4 51.2,37.2 25.4,28.6 	"/>
	<polygon class="st1" points="66.8,2.8 92.6,11.4 101.2,37.2 75.4,28.6 	"/>
	<polygon class="st1" points="116.8,2.8 142.6,11.4 151.2,37.2 125.4,28.6 	"/>
	<polygon class="st1" points="166.8,2.8 192.6,11.4 201.2,37.2 175.4,28.6 	"/>
	<polygon class="st1" points="216.8,2.8 242.6,11.4 251.2,37.2 225.4,28.6 	"/>
	<polygon class="st1" points="266.8,2.8 292.6,11.4 301.2,37.2 275.4,28.6 	"/>
	<polygon class="st1" points="316.8,2.8 342.6,11.4 351.2,37.2 325.4,28.6 	"/>
</g>
<g>
	<polygon class="st1" points="16.8,52.3 42.6,60.9 51.2,86.7 25.4,78.1 	"/>
	<polygon class="st1" points="66.8,52.3 92.6,60.9 101.2,86.7 75.4,78.1 	"/>
	<polygon class="st1" points="116.8,52.3 142.6,60.9 151.2,86.7 125.4,78.1 	"/>
	<polygon class="st1" points="166.8,52.3 192.6,60.9 201.2,86.7 175.4,78.1 	"/>
	<polygon class="st1" points="216.8,52.3 242.6,60.9 251.2,86.7 225.4,78.1 	"/>
	<polygon class="st1" points="266.8,52.3 292.6,60.9 301.2,86.7 275.4,78.1 	"/>
	<polygon class="st1" points="316.8,52.3 342.6,60.9 351.2,86.7 325.4,78.1 	"/>
</g>
<g>
	<polygon class="st1" points="16.8,101.8 42.6,110.4 51.2,136.2 25.4,127.6 	"/>
	<polygon class="st1" points="66.8,101.8 92.6,110.4 101.2,136.2 75.4,127.6 	"/>
	<polygon class="st1" points="116.8,101.8 142.6,110.4 151.2,136.2 125.4,127.6 	"/>
	<polygon class="st1" points="166.8,101.8 192.6,110.4 201.2,136.2 175.4,127.6 	"/>
	<polygon class="st1" points="216.8,101.8 242.6,110.4 251.2,136.2 225.4,127.6 	"/>
	<polygon class="st1" points="266.8,101.8 292.6,110.4 301.2,136.2 275.4,127.6 	"/>
	<polygon class="st1" points="316.8,101.8 342.6,110.4 351.2,136.2 325.4,127.6 	"/>
</g>
<g>
	<polygon class="st1" points="16.8,151.3 42.6,159.9 51.2,185.7 25.4,177.1 	"/>
	<polygon class="st1" points="66.8,151.3 92.6,159.9 101.2,185.7 75.4,177.1 	"/>
	<polygon class="st1" points="116.8,151.3 142.6,159.9 151.2,185.7 125.4,177.1 	"/>
	<polygon class="st1" points="166.8,151.3 192.6,159.9 201.2,185.7 175.4,177.1 	"/>
	<polygon class="st1" points="216.8,151.3 242.6,159.9 251.2,185.7 225.4,177.1 	"/>
	<polygon class="st1" points="266.8,151.3 292.6,159.9 301.2,185.7 275.4,177.1 	"/>
	<polygon class="st1" points="316.8,151.3 342.6,159.9 351.2,185.7 325.4,177.1 	"/>
</g>
<g>
	<polygon class="st1" points="16.8,200.8 42.6,209.4 51.2,235.2 25.4,226.6 	"/>
	<polygon class="st1" points="66.8,200.8 92.6,209.4 101.2,235.2 75.4,226.6 	"/>
	<polygon class="st1" points="116.8,200.8 142.6,209.4 151.2,235.2 125.4,226.6 	"/>
	<polygon class="st1" points="166.8,200.8 192.6,209.4 201.2,235.2 175.4,226.6 	"/>
	<polygon class="st1" points="216.8,200.8 242.6,209.4 251.2,235.2 225.4,226.6 	"/>
	<polygon class="st1" points="266.8,200.8 292.6,209.4 301.2,235.2 275.4,226.6 	"/>
	<polygon class="st1" points="316.8,200.8 342.6,209.4 351.2,235.2 325.4,226.6 	"/>
</g>
<g>
	<polygon class="st1" points="16.8,250.3 42.6,258.9 51.2,284.7 25.4,276.1 	"/>
	<polygon class="st1" points="66.8,250.3 92.6,258.9 101.2,284.7 75.4,276.1 	"/>
	<polygon class="st1" points="116.8,250.3 142.6,258.9 151.2,284.7 125.4,276.1 	"/>
	<polygon class="st1" points="166.8,250.3 192.6,258.9 201.2,284.7 175.4,276.1 	"/>
	<polygon class="st1" points="216.8,250.3 242.6,258.9 251.2,284.7 225.4,276.1 	"/>
	<polygon class="st1" points="266.8,250.3 292.6,258.9 301.2,284.7 275.4,276.1 	"/>
	<polygon class="st1" points="316.8,250.3 342.6,258.9 351.2,284.7 325.4,276.1 	"/>
</g>
<g>
	<polygon class="st1" points="16.8,299.8 42.6,308.4 51.2,334.2 25.4,325.6 	"/>
	<polygon class="st1" points="66.8,299.8 92.6,308.4 101.2,334.2 75.4,325.6 	"/>
	<polygon class="st1" points="116.8,299.8 142.6,308.4 151.2,334.2 125.4,325.6 	"/>
	<polygon class="st1" points="166.8,299.8 192.6,308.4 201.2,334.2 175.4,325.6 	"/>
	<polygon class="st1" points="216.8,299.8 242.6,308.4 251.2,334.2 225.4,325.6 	"/>
	<polygon class="st1" points="266.8,299.8 292.6,308.4 301.2,334.2 275.4,325.6 	"/>
	<polygon class="st1" points="316.8,299.8 342.6,308.4 351.2,334.2 325.4,325.6 	"/>
</g>
<g>
	<polygon class="st1" points="16.8,349.3 42.6,357.9 51.2,383.7 25.4,375.1 	"/>
	<polygon class="st1" points="66.8,349.3 92.6,357.9 101.2,383.7 75.4,375.1 	"/>
	<polygon class="st1" points="116.8,349.3 142.6,357.9 151.2,383.7 125.4,375.1 	"/>
	<polygon class="st1" points="166.8,349.3 192.6,357.9 201.2,383.7 175.4,375.1 	"/>
	<polygon class="st1" points="216.8,349.3 242.6,357.9 251.2,383.7 225.4,375.1 	"/>
	<polygon class="st1" points="266.8,349.3 292.6,357.9 301.2,383.7 275.4,375.1 	"/>
	<polygon class="st1" points="316.8,349.3 342.6,357.9 351.2,383.7 325.4,375.1 	"/>
</g>
<g>
	<polygon class="st1" points="16.8,398.8 42.6,407.4 51.2,433.2 25.4,424.6 	"/>
	<polygon class="st1" points="66.8,398.8 92.6,407.4 101.2,433.2 75.4,424.6 	"/>
	<polygon class="st1" points="116.8,398.8 142.6,407.4 151.2,433.2 125.4,424.6 	"/>
	<polygon class="st1" points="166.8,398.8 192.6,407.4 201.2,433.2 175.4,424.6 	"/>
	<polygon class="st1" points="216.8,398.8 242.6,407.4 251.2,433.2 225.4,424.6 	"/>
	<polygon class="st1" points="266.8,398.8 292.6,407.4 301.2,433.2 275.4,424.6 	"/>
	<polygon class="st1" points="316.8,398.8 342.6,407.4 351.2,433.2 325.4,424.6 	"/>
</g>
<g>
	<polygon class="st1" points="16.8,448.3 42.6,456.9 51.2,482.7 25.4,474.1 	"/>
	<polygon class="st1" points="66.8,448.3 92.6,456.9 101.2,482.7 75.4,474.1 	"/>
	<polygon class="st1" points="116.8,448.3 142.6,456.9 151.2,482.7 125.4,474.1 	"/>
	<polygon class="st1" points="166.8,448.3 192.6,456.9 201.2,482.7 175.4,474.1 	"/>
	<polygon class="st1" points="216.8,448.3 242.6,456.9 251.2,482.7 225.4,474.1 	"/>
	<polygon class="st1" points="266.8,448.3 292.6,456.9 301.2,482.7 275.4,474.1 	"/>
	<polygon class="st1" points="316.8,448.3 342.6,456.9 351.2,482.7 325.4,474.1 	"/>
</g>
<g>
	<polygon class="st1" points="16.8,497.8 42.6,506.4 51.2,532.2 25.4,523.6 	"/>
	<polygon class="st1" points="66.8,497.8 92.6,506.4 101.2,532.2 75.4,523.6 	"/>
	<polygon class="st1" points="116.8,497.8 142.6,506.4 151.2,532.2 125.4,523.6 	"/>
	<polygon class="st1" points="166.8,497.8 192.6,506.4 201.2,532.2 175.4,523.6 	"/>
	<polygon class="st1" points="216.8,497.8 242.6,506.4 251.2,532.2 225.4,523.6 	"/>
	<polygon class="st1" points="266.8,497.8 292.6,506.4 301.2,532.2 275.4,523.6 	"/>
	<polygon class="st1" points="316.8,497.8 342.6,506.4 351.2,532.2 325.4,523.6 	"/>
</g>
<g>
	<polygon class="st1" points="16.8,547.3 42.6,555.9 51.2,581.7 25.4,573.1 	"/>
	<polygon class="st1" points="66.8,547.3 92.6,555.9 101.2,581.7 75.4,573.1 	"/>
	<polygon class="st1" points="116.8,547.3 142.6,555.9 151.2,581.7 125.4,573.1 	"/>
	<polygon class="st1" points="166.8,547.3 192.6,555.9 201.2,581.7 175.4,573.1 	"/>
	<polygon class="st1" points="216.8,547.3 242.6,555.9 251.2,581.7 225.4,573.1 	"/>
	<polygon class="st1" points="266.8,547.3 292.6,555.9 301.2,581.7 275.4,573.1 	"/>
	<polygon class="st1" points="316.8,547.3 342.6,555.9 351.2,581.7 325.4,573.1 	"/>
</g>
<g>
	<polygon class="st1" points="17.8,598.8 43.6,607.4 52.2,633.2 26.4,624.6 	"/>
	<polygon class="st1" points="67.8,598.8 93.6,607.4 102.2,633.2 76.4,624.6 	"/>
	<polygon class="st1" points="117.8,598.8 143.6,607.4 152.2,633.2 126.4,624.6 	"/>
	<polygon class="st1" points="167.8,598.8 193.6,607.4 202.2,633.2 176.4,624.6 	"/>
	<polygon class="st1" points="217.8,598.8 243.6,607.4 252.2,633.2 226.4,624.6 	"/>
	<polygon class="st1" points="267.8,598.8 293.6,607.4 302.2,633.2 276.4,624.6 	"/>
	<polygon class="st1" points="317.8,598.8 343.6,607.4 352.2,633.2 326.4,624.6 	"/>
</g>
<g>
	<polygon class="st1" points="17.8,648.3 43.6,656.9 52.2,682.7 26.4,674.1 	"/>
	<polygon class="st1" points="67.8,648.3 93.6,656.9 102.2,682.7 76.4,674.1 	"/>
	<polygon class="st1" points="117.8,648.3 143.6,656.9 152.2,682.7 126.4,674.1 	"/>
	<polygon class="st1" points="167.8,648.3 193.6,656.9 202.2,682.7 176.4,674.1 	"/>
	<polygon class="st1" points="217.8,648.3 243.6,656.9 252.2,682.7 226.4,674.1 	"/>
	<polygon class="st1" points="267.8,648.3 293.6,656.9 302.2,682.7 276.4,674.1 	"/>
	<polygon class="st1" points="317.8,648.3 343.6,656.9 352.2,682.7 326.4,674.1 	"/>
</g>
<g>
	<polygon class="st1" points="17.8,697.8 43.6,706.4 52.2,732.2 26.4,723.6 	"/>
	<polygon class="st1" points="67.8,697.8 93.6,706.4 102.2,732.2 76.4,723.6 	"/>
	<polygon class="st1" points="117.8,697.8 143.6,706.4 152.2,732.2 126.4,723.6 	"/>
	<polygon class="st1" points="167.8,697.8 193.6,706.4 202.2,732.2 176.4,723.6 	"/>
	<polygon class="st1" points="217.8,697.8 243.6,706.4 252.2,732.2 226.4,723.6 	"/>
	<polygon class="st1" points="267.8,697.8 293.6,706.4 302.2,732.2 276.4,723.6 	"/>
	<polygon class="st1" points="317.8,697.8 343.6,706.4 352.2,732.2 326.4,723.6 	"/>
</g>
<g>
	<polygon class="st1" points="17.8,747.3 43.6,755.9 52.2,781.7 26.4,773.1 	"/>
	<polygon class="st1" points="67.8,747.3 93.6,755.9 102.2,781.7 76.4,773.1 	"/>
	<polygon class="st1" points="117.8,747.3 143.6,755.9 152.2,781.7 126.4,773.1 	"/>
	<polygon class="st1" points="167.8,747.3 193.6,755.9 202.2,781.7 176.4,773.1 	"/>
	<polygon class="st1" points="217.8,747.3 243.6,755.9 252.2,781.7 226.4,773.1 	"/>
	<polygon class="st1" points="267.8,747.3 293.6,755.9 302.2,781.7 276.4,773.1 	"/>
	<polygon class="st1" points="317.8,747.3 343.6,755.9 352.2,781.7 326.4,773.1 	"/>
</g>
<g>
	<polygon class="st1" points="17.8,796.8 43.6,805.4 52.2,831.2 26.4,822.6 	"/>
	<polygon class="st1" points="67.8,796.8 93.6,805.4 102.2,831.2 76.4,822.6 	"/>
	<polygon class="st1" points="117.8,796.8 143.6,805.4 152.2,831.2 126.4,822.6 	"/>
	<polygon class="st1" points="167.8,796.8 193.6,805.4 202.2,831.2 176.4,822.6 	"/>
	<polygon class="st1" points="217.8,796.8 243.6,805.4 252.2,831.2 226.4,822.6 	"/>
	<polygon class="st1" points="267.8,796.8 293.6,805.4 302.2,831.2 276.4,822.6 	"/>
	<polygon class="st1" points="317.8,796.8 343.6,805.4 352.2,831.2 326.4,822.6 	"/>
</g>
<g>
	<polygon class="st1" points="17.8,846.3 43.6,854.9 52.2,880.7 26.4,872.1 	"/>
	<polygon class="st1" points="67.8,846.3 93.6,854.9 102.2,880.7 76.4,872.1 	"/>
	<polygon class="st1" points="117.8,846.3 143.6,854.9 152.2,880.7 126.4,872.1 	"/>
	<polygon class="st1" points="167.8,846.3 193.6,854.9 202.2,880.7 176.4,872.1 	"/>
	<polygon class="st1" points="217.8,846.3 243.6,854.9 252.2,880.7 226.4,872.1 	"/>
	<polygon class="st1" points="267.8,846.3 293.6,854.9 302.2,880.7 276.4,872.1 	"/>
	<polygon class="st1" points="317.8,846.3 343.6,854.9 352.2,880.7 326.4,872.1 	"/>
</g>
<g>
	<polygon class="st1" points="17.8,895.8 43.6,904.4 52.2,930.2 26.4,921.6 	"/>
	<polygon class="st1" points="67.8,895.8 93.6,904.4 102.2,930.2 76.4,921.6 	"/>
	<polygon class="st1" points="117.8,895.8 143.6,904.4 152.2,930.2 126.4,921.6 	"/>
	<polygon class="st1" points="167.8,895.8 193.6,904.4 202.2,930.2 176.4,921.6 	"/>
	<polygon class="st1" points="217.8,895.8 243.6,904.4 252.2,930.2 226.4,921.6 	"/>
	<polygon class="st1" points="267.8,895.8 293.6,904.4 302.2,930.2 276.4,921.6 	"/>
	<polygon class="st1" points="317.8,895.8 343.6,904.4 352.2,930.2 326.4,921.6 	"/>
</g>
<g>
	<polygon class="st1" points="17.8,945.3 43.6,953.9 52.2,979.7 26.4,971.1 	"/>
	<polygon class="st1" points="67.8,945.3 93.6,953.9 102.2,979.7 76.4,971.1 	"/>
	<polygon class="st1" points="117.8,945.3 143.6,953.9 152.2,979.7 126.4,971.1 	"/>
	<polygon class="st1" points="167.8,945.3 193.6,953.9 202.2,979.7 176.4,971.1 	"/>
	<polygon class="st1" points="217.8,945.3 243.6,953.9 252.2,979.7 226.4,971.1 	"/>
	<polygon class="st1" points="267.8,945.3 293.6,953.9 302.2,979.7 276.4,971.1 	"/>
	<polygon class="st1" points="317.8,945.3 343.6,953.9 352.2,979.7 326.4,971.1 	"/>
</g>
<g>
	<polygon class="st1" points="17.8,994.8 43.6,1003.4 52.2,1029.2 26.4,1020.6 	"/>
	<polygon class="st1" points="67.8,994.8 93.6,1003.4 102.2,1029.2 76.4,1020.6 	"/>
	<polygon class="st1" points="117.8,994.8 143.6,1003.4 152.2,1029.2 126.4,1020.6 	"/>
	<polygon class="st1" points="167.8,994.8 193.6,1003.4 202.2,1029.2 176.4,1020.6 	"/>
	<polygon class="st1" points="217.8,994.8 243.6,1003.4 252.2,1029.2 226.4,1020.6 	"/>
	<polygon class="st1" points="267.8,994.8 293.6,1003.4 302.2,1029.2 276.4,1020.6 	"/>
	<polygon class="st1" points="317.8,994.8 343.6,1003.4 352.2,1029.2 326.4,1020.6 	"/>
</g>
<g>
	<polygon class="st1" points="17.8,1044.3 43.6,1052.9 52.2,1078.7 26.4,1070.1 	"/>
	<polygon class="st1" points="67.8,1044.3 93.6,1052.9 102.2,1078.7 76.4,1070.1 	"/>
	<polygon class="st1" points="117.8,1044.3 143.6,1052.9 152.2,1078.7 126.4,1070.1 	"/>
	<polygon class="st1" points="167.8,1044.3 193.6,1052.9 202.2,1078.7 176.4,1070.1 	"/>
	<polygon class="st1" points="217.8,1044.3 243.6,1052.9 252.2,1078.7 226.4,1070.1 	"/>
	<polygon class="st1" points="267.8,1044.3 293.6,1052.9 302.2,1078.7 276.4,1070.1 	"/>
	<polygon class="st1" points="317.8,1044.3 343.6,1052.9 352.2,1078.7 326.4,1070.1 	"/>
</g>
<g>
	<polygon class="st1" points="17.8,1093.8 43.6,1102.4 52.2,1128.2 26.4,1119.6 	"/>
	<polygon class="st1" points="67.8,1093.8 93.6,1102.4 102.2,1128.2 76.4,1119.6 	"/>
	<polygon class="st1" points="117.8,1093.8 143.6,1102.4 152.2,1128.2 126.4,1119.6 	"/>
	<polygon class="st1" points="167.8,1093.8 193.6,1102.4 202.2,1128.2 176.4,1119.6 	"/>
	<polygon class="st1" points="217.8,1093.8 243.6,1102.4 252.2,1128.2 226.4,1119.6 	"/>
	<polygon class="st1" points="267.8,1093.8 293.6,1102.4 302.2,1128.2 276.4,1119.6 	"/>
	<polygon class="st1" points="317.8,1093.8 343.6,1102.4 352.2,1128.2 326.4,1119.6 	"/>
</g>
</svg>
