<svg id="Capa_1" data-name="Capa 1" xmlns="http://www.w3.org/2000/svg" viewBox="0 0 370 150"><defs><style>.cls-1{fill:#aeaad5;}.cls-2{fill:#9898cb;}</style></defs><title>toronto_pic</title><rect class="cls-1" width="370" height="150"/><path class="cls-2" d="M370,150v-6.43h-.69v-.46h-.84v-1.68h-1.91v1h-1v1.68H364.5v-2.3h-1v-4.14h-8.1v-7.51h-.92l-.76-1.3h-.38v-1.46h-2.9v1.46H350l-.69,1.3h-.84v4.14h-1.91v6H344.1v-7.43h-.46V129.7h-.92v-10h-.38l-.84-1.46h-3.67l-.76,1.46h-.46v11h-2v-8.73h-3.82l-2.44,2.83v9.34h-.76v-7.28h-.76v-.61h-1.68v.61h-.69v-7.43h-1.15V119h-1.15V117.3h-1.76V119h-1v.38h-1.15V121h-.92v-9.8h-.76v-.61h-3.06v.61H311v-.61H308v.61h-.61v16.31h-1V116.3h-7.11v18.84h-2.06V123h-1.53v-.84h-3.51V123H290.7v14.09H288V125.42h-9v2.37H276v2.14h-3.21v6.36h-9.55v-5.36H259.6v-2.07h-4.74v2.3h-3.59V118.29H234.47v24.35h-3.9v-3.14h-6.65v-4.29h-4v-2h-2.06v2h-3.59l-2.75,1.68L207.88,76.1c2.14-.15,3.82-.84,3.82-1.68a1.07,1.07,0,0,0-.61-.84,1.8,1.8,0,0,0,.61-1.38,1.81,1.81,0,0,0-1.3-1.76.66.66,0,0,0,.23-.46.69.69,0,0,0-.69-.69h-1.68l-.92-44.8-2,44.8h-1.68A.69.69,0,0,0,203,70a.46.46,0,0,0,.23.46,1.81,1.81,0,0,0-1.3,1.76,1.92,1.92,0,0,0,.61,1.38,1.07,1.07,0,0,0-.61.84c0,.77,1.3,1.38,3.06,1.61l-2.52,49.7h-.84v3.06h-3.21v7h-6.26v6.36h-1.38v-5h-1.38v-9.34h-1.68v-2.14h-4v2.14h-1.53v13.1c-22.46-22.67-45.53-7.28-52.41-1.68v-6.59h-5.2v-4.75h-5.35v-6H112c-.53,0,0,9,0,9h-6.72v-3.45h-3.67V123h-1.45v-.92H98.25v-1.3H95.5v2.45H93.82V136H92v4.14H87V114.77H84V113H82.28v-1.23H81.14v3.14H78.31v21.52H72.2v1.3h-3V120.51H67.77v-2.45H65.24v-3.14H61.65v1.23H59.82v1.3H57.3v1.46h-1v1.76H55.16v1H52.41v1.46h-.69v1.3H51v17.69H49.43V130.93H48.05v-.77H44.77v.77H43.39v13H40.87V124H38v-1.3h-.69V124h-2.9v17.92H32.62v-2.07h-3v-3.06H22.38v6.43H18.64v-1.84h-1.3v-1H15.59v1H14.52v4.21H11.23v2.22H8.86v-1.84H6.8v-2.3H4.2v1.91H0V150Z"/></svg>