<?xml version="1.0" encoding="utf-8"?>
<!-- Generator: Adobe Illustrator 21.0.2, SVG Export Plug-In . SVG Version: 6.00 Build 0)  -->
<svg version="1.1" id="Capa_1" xmlns="http://www.w3.org/2000/svg" xmlns:xlink="http://www.w3.org/1999/xlink" x="0px" y="0px"
	 viewBox="0 0 495 169" style="enable-background:new 0 0 495 169;" xml:space="preserve">
<style type="text/css">
	.st0{fill:#9A9AD8;}
</style>
<path class="st0" d="M491.3,169.3v-8.4h-0.9v-0.6h-1.1v-2.2h-2.5v1.3h-1.3v2.2h-1.4v-3h-1.3v-5.4h-10.6v-9.8H471l-1-1.7h-0.5v-1.9
	h-3.8v1.9h-0.6l-0.9,1.7h-1.1v5.4h-2.5v7.8h-3.2v-9.7h-0.6v-4.1h-1.2v-13.1h-0.5l-1.1-1.9h-4.8l-1,1.9h-0.6V144h-2.6v-11.4h-5
	l-3.2,3.7v12.2h-1v-9.5h-1v-0.8h-2.2v0.8h-0.9v-9.7h-1.5v-0.5h-1.5v-2.2h-2.3v2.2h-1.3v0.5h-1.5v2.1h-1.2v-12.8h-1v-0.8h-4v0.8h-3.3
	v-0.8h-4v0.8h-0.8v21.3h-1.3v-14.6h-9.3v24.6h-2.7V134h-2v-1.1h-4.6v1.1h-1.9v18.4H384v-15.2h-11.8v3.1h-4v2.8H364v8.3h-12.5v-7
	h-4.7v-2.7h-6.2v3h-4.7v-16.8h-22v31.8h-5.1v-4.1h-8.7V150h-5.3v-2.6h-2.7v2.6h-4.7l-3.6,2.2l-4.7-79.4c2.8-0.2,5-1.1,5-2.2
	c0-0.4-0.3-0.8-0.8-1.1c0.5-0.4,0.8-1.1,0.8-1.8c0-1.1-0.7-2-1.7-2.3c0.2-0.2,0.3-0.4,0.3-0.6c0-0.5-0.4-0.9-0.9-0.9h-2.2l-1.2-58.5
	l-2.6,58.5h-2.2c-0.5,0-0.9,0.4-0.9,0.9c0,0.3,0.1,0.5,0.3,0.6c-1,0.3-1.7,1.2-1.7,2.3c0,0.7,0.3,1.3,0.8,1.8
	c-0.5,0.3-0.8,0.7-0.8,1.1c0,1,1.7,1.8,4,2.1l-3.3,64.9h-1.1v4h-4.2v9.1h-8.2v8.3h-1.8v-6.5h-1.8v-12.2h-2.2v-2.8h-5.3v2.8h-2v17.1
	c-29.4-29.6-59.6-9.5-68.6-2.2v-8.6h-6.8v-6.2h-7v-7.8c0,0-8.6,0-9.4,0c-0.7,0,0,11.8,0,11.8h-8.8v-4.5H140v-5.8h-1.9v-1.2h-2.5
	v-1.7H132v3.2h-2.2V151h-2.4v5.4h-6.5v-33.1h-4v-2.3h-2.2v-1.6h-1.5v4.1h-3.7v28.1h-8v1.7h-3.9v-22.5h-1.9v-3.2h-3.3v-4.1h-4.7v1.6
	h-2.4v1.7H82v1.9h-1.3v2.3h-1.5v1.3h-3.6v1.9h-0.9v1.7h-1V159h-2v-14.6h-1.8v-1h-4.3v1h-1.8v17h-3.3v-26.1h-3.7v-1.7
	c-0.3,0-0.6,0-0.9,0v1.7h-3.8v23.4h-2.4V156h-3.9v-4h-9.5v8.4h-4.9V158h-1.7v-1.3h-2.3v1.3H26v5.5h-4.3v2.9h-3.1V164h-2.7v-3h-3.4
	v2.5H7v5.8H491.3z"/>
</svg>
