<svg xmlns="http://www.w3.org/2000/svg" viewBox="0 0 370 587.17"><defs><style>.cls-1{fill:#f1ffce;}.cls-2{fill:#fff;}</style></defs><title>background</title><g id="Capa_2" data-name="Capa 2"><g id="Capa_1-2" data-name="Capa 1"><rect class="cls-1" width="370" height="566"/><polygon class="cls-2" points="17.83 8.33 43.59 16.91 52.17 42.67 26.41 34.09 17.83 8.33"/><polygon class="cls-2" points="67.83 8.33 93.59 16.91 102.17 42.67 76.41 34.09 67.83 8.33"/><polygon class="cls-2" points="117.83 8.33 143.59 16.91 152.17 42.67 126.41 34.09 117.83 8.33"/><polygon class="cls-2" points="167.83 8.33 193.59 16.91 202.17 42.67 176.41 34.09 167.83 8.33"/><polygon class="cls-2" points="217.83 8.33 243.59 16.91 252.17 42.67 226.41 34.09 217.83 8.33"/><polygon class="cls-2" points="267.83 8.33 293.59 16.91 302.17 42.67 276.41 34.09 267.83 8.33"/><polygon class="cls-2" points="317.83 8.33 343.59 16.91 352.17 42.67 326.41 34.09 317.83 8.33"/><polygon class="cls-2" points="17.83 57.83 43.59 66.41 52.17 92.17 26.41 83.59 17.83 57.83"/><polygon class="cls-2" points="67.83 57.83 93.59 66.41 102.17 92.17 76.41 83.59 67.83 57.83"/><polygon class="cls-2" points="117.83 57.83 143.59 66.41 152.17 92.17 126.41 83.59 117.83 57.83"/><polygon class="cls-2" points="167.83 57.83 193.59 66.41 202.17 92.17 176.41 83.59 167.83 57.83"/><polygon class="cls-2" points="217.83 57.83 243.59 66.41 252.17 92.17 226.41 83.59 217.83 57.83"/><polygon class="cls-2" points="267.83 57.83 293.59 66.41 302.17 92.17 276.41 83.59 267.83 57.83"/><polygon class="cls-2" points="317.83 57.83 343.59 66.41 352.17 92.17 326.41 83.59 317.83 57.83"/><polygon class="cls-2" points="17.83 107.33 43.59 115.91 52.17 141.67 26.41 133.09 17.83 107.33"/><polygon class="cls-2" points="67.83 107.33 93.59 115.91 102.17 141.67 76.41 133.09 67.83 107.33"/><polygon class="cls-2" points="117.83 107.33 143.59 115.91 152.17 141.67 126.41 133.09 117.83 107.33"/><polygon class="cls-2" points="167.83 107.33 193.59 115.91 202.17 141.67 176.41 133.09 167.83 107.33"/><polygon class="cls-2" points="217.83 107.33 243.59 115.91 252.17 141.67 226.41 133.09 217.83 107.33"/><polygon class="cls-2" points="267.83 107.33 293.59 115.91 302.17 141.67 276.41 133.09 267.83 107.33"/><polygon class="cls-2" points="317.83 107.33 343.59 115.91 352.17 141.67 326.41 133.09 317.83 107.33"/><polygon class="cls-2" points="17.83 156.83 43.59 165.41 52.17 191.17 26.41 182.59 17.83 156.83"/><polygon class="cls-2" points="67.83 156.83 93.59 165.41 102.17 191.17 76.41 182.59 67.83 156.83"/><polygon class="cls-2" points="117.83 156.83 143.59 165.41 152.17 191.17 126.41 182.59 117.83 156.83"/><polygon class="cls-2" points="167.83 156.83 193.59 165.41 202.17 191.17 176.41 182.59 167.83 156.83"/><polygon class="cls-2" points="217.83 156.83 243.59 165.41 252.17 191.17 226.41 182.59 217.83 156.83"/><polygon class="cls-2" points="267.83 156.83 293.59 165.41 302.17 191.17 276.41 182.59 267.83 156.83"/><polygon class="cls-2" points="317.83 156.83 343.59 165.41 352.17 191.17 326.41 182.59 317.83 156.83"/><polygon class="cls-2" points="17.83 206.33 43.59 214.91 52.17 240.67 26.41 232.09 17.83 206.33"/><polygon class="cls-2" points="67.83 206.33 93.59 214.91 102.17 240.67 76.41 232.09 67.83 206.33"/><polygon class="cls-2" points="117.83 206.33 143.59 214.91 152.17 240.67 126.41 232.09 117.83 206.33"/><polygon class="cls-2" points="167.83 206.33 193.59 214.91 202.17 240.67 176.41 232.09 167.83 206.33"/><polygon class="cls-2" points="217.83 206.33 243.59 214.91 252.17 240.67 226.41 232.09 217.83 206.33"/><polygon class="cls-2" points="267.83 206.33 293.59 214.91 302.17 240.67 276.41 232.09 267.83 206.33"/><polygon class="cls-2" points="317.83 206.33 343.59 214.91 352.17 240.67 326.41 232.09 317.83 206.33"/><polygon class="cls-2" points="17.83 255.83 43.59 264.41 52.17 290.17 26.41 281.59 17.83 255.83"/><polygon class="cls-2" points="67.83 255.83 93.59 264.41 102.17 290.17 76.41 281.59 67.83 255.83"/><polygon class="cls-2" points="117.83 255.83 143.59 264.41 152.17 290.17 126.41 281.59 117.83 255.83"/><polygon class="cls-2" points="167.83 255.83 193.59 264.41 202.17 290.17 176.41 281.59 167.83 255.83"/><polygon class="cls-2" points="217.83 255.83 243.59 264.41 252.17 290.17 226.41 281.59 217.83 255.83"/><polygon class="cls-2" points="267.83 255.83 293.59 264.41 302.17 290.17 276.41 281.59 267.83 255.83"/><polygon class="cls-2" points="317.83 255.83 343.59 264.41 352.17 290.17 326.41 281.59 317.83 255.83"/><polygon class="cls-2" points="17.83 305.33 43.59 313.91 52.17 339.67 26.41 331.09 17.83 305.33"/><polygon class="cls-2" points="67.83 305.33 93.59 313.91 102.17 339.67 76.41 331.09 67.83 305.33"/><polygon class="cls-2" points="117.83 305.33 143.59 313.91 152.17 339.67 126.41 331.09 117.83 305.33"/><polygon class="cls-2" points="167.83 305.33 193.59 313.91 202.17 339.67 176.41 331.09 167.83 305.33"/><polygon class="cls-2" points="217.83 305.33 243.59 313.91 252.17 339.67 226.41 331.09 217.83 305.33"/><polygon class="cls-2" points="267.83 305.33 293.59 313.91 302.17 339.67 276.41 331.09 267.83 305.33"/><polygon class="cls-2" points="317.83 305.33 343.59 313.91 352.17 339.67 326.41 331.09 317.83 305.33"/><polygon class="cls-2" points="17.83 354.83 43.59 363.41 52.17 389.17 26.41 380.59 17.83 354.83"/><polygon class="cls-2" points="67.83 354.83 93.59 363.41 102.17 389.17 76.41 380.59 67.83 354.83"/><polygon class="cls-2" points="117.83 354.83 143.59 363.41 152.17 389.17 126.41 380.59 117.83 354.83"/><polygon class="cls-2" points="167.83 354.83 193.59 363.41 202.17 389.17 176.41 380.59 167.83 354.83"/><polygon class="cls-2" points="217.83 354.83 243.59 363.41 252.17 389.17 226.41 380.59 217.83 354.83"/><polygon class="cls-2" points="267.83 354.83 293.59 363.41 302.17 389.17 276.41 380.59 267.83 354.83"/><polygon class="cls-2" points="317.83 354.83 343.59 363.41 352.17 389.17 326.41 380.59 317.83 354.83"/><polygon class="cls-2" points="17.83 404.33 43.59 412.91 52.17 438.67 26.41 430.09 17.83 404.33"/><polygon class="cls-2" points="67.83 404.33 93.59 412.91 102.17 438.67 76.41 430.09 67.83 404.33"/><polygon class="cls-2" points="117.83 404.33 143.59 412.91 152.17 438.67 126.41 430.09 117.83 404.33"/><polygon class="cls-2" points="167.83 404.33 193.59 412.91 202.17 438.67 176.41 430.09 167.83 404.33"/><polygon class="cls-2" points="217.83 404.33 243.59 412.91 252.17 438.67 226.41 430.09 217.83 404.33"/><polygon class="cls-2" points="267.83 404.33 293.59 412.91 302.17 438.67 276.41 430.09 267.83 404.33"/><polygon class="cls-2" points="317.83 404.33 343.59 412.91 352.17 438.67 326.41 430.09 317.83 404.33"/><polygon class="cls-2" points="17.83 453.83 43.59 462.41 52.17 488.17 26.41 479.59 17.83 453.83"/><polygon class="cls-2" points="67.83 453.83 93.59 462.41 102.17 488.17 76.41 479.59 67.83 453.83"/><polygon class="cls-2" points="117.83 453.83 143.59 462.41 152.17 488.17 126.41 479.59 117.83 453.83"/><polygon class="cls-2" points="167.83 453.83 193.59 462.41 202.17 488.17 176.41 479.59 167.83 453.83"/><polygon class="cls-2" points="217.83 453.83 243.59 462.41 252.17 488.17 226.41 479.59 217.83 453.83"/><polygon class="cls-2" points="267.83 453.83 293.59 462.41 302.17 488.17 276.41 479.59 267.83 453.83"/><polygon class="cls-2" points="317.83 453.83 343.59 462.41 352.17 488.17 326.41 479.59 317.83 453.83"/><polygon class="cls-2" points="17.83 503.33 43.59 511.91 52.17 537.67 26.41 529.09 17.83 503.33"/><polygon class="cls-2" points="67.83 503.33 93.59 511.91 102.17 537.67 76.41 529.09 67.83 503.33"/><polygon class="cls-2" points="117.83 503.33 143.59 511.91 152.17 537.67 126.41 529.09 117.83 503.33"/><polygon class="cls-2" points="167.83 503.33 193.59 511.91 202.17 537.67 176.41 529.09 167.83 503.33"/><polygon class="cls-2" points="217.83 503.33 243.59 511.91 252.17 537.67 226.41 529.09 217.83 503.33"/><polygon class="cls-2" points="267.83 503.33 293.59 511.91 302.17 537.67 276.41 529.09 267.83 503.33"/><polygon class="cls-2" points="317.83 503.33 343.59 511.91 352.17 537.67 326.41 529.09 317.83 503.33"/><polygon class="cls-2" points="17.83 552.83 43.59 561.41 52.17 587.17 26.41 578.59 17.83 552.83"/><polygon class="cls-2" points="67.83 552.83 93.59 561.41 102.17 587.17 76.41 578.59 67.83 552.83"/><polygon class="cls-2" points="117.83 552.83 143.59 561.41 152.17 587.17 126.41 578.59 117.83 552.83"/><polygon class="cls-2" points="167.83 552.83 193.59 561.41 202.17 587.17 176.41 578.59 167.83 552.83"/><polygon class="cls-2" points="217.83 552.83 243.59 561.41 252.17 587.17 226.41 578.59 217.83 552.83"/><polygon class="cls-2" points="267.83 552.83 293.59 561.41 302.17 587.17 276.41 578.59 267.83 552.83"/><polygon class="cls-2" points="317.83 552.83 343.59 561.41 352.17 587.17 326.41 578.59 317.83 552.83"/></g></g></svg>