<svg xmlns="http://www.w3.org/2000/svg" viewBox="0 0 106.7 42.43"><defs><style>.cls-1{fill:#332756;}</style></defs><title>logo</title><g id="Capa_2" data-name="Capa 2"><g id="Capa_1-2" data-name="Capa 1"><path class="cls-1" d="M18.85,6c4.29.58,5.64,2.3,4.79,6.17l.87.3a4.24,4.24,0,0,1,1.77,6.91A2.43,2.43,0,0,0,25.6,21q-.43,5.19-1,10.38A5.13,5.13,0,0,1,19.73,36q-6,.07-12.09,0a5.11,5.11,0,0,1-4.87-4.5c-.36-3.59-.65-7.18-1-10.77a1.88,1.88,0,0,0-.41-1c-2.45-2.71-1.47-6.28,2-7.34l.22-.08a14.73,14.73,0,0,1,0-3A4.11,4.11,0,0,1,7.89,6.1c2.21,0,4.42,0,6.63,0,1.32,0,2.12-.65,2.17-1.72s-.64-1.78-1.87-2c-.77-.12-1.19-.52-1.14-1.3S14.25,0,15,0a4.27,4.27,0,0,1,4.1,4.79C19,5.2,18.93,5.6,18.85,6ZM4.36,20.82c0,.26,0,.46,0,.64.28,3.14.52,6.28.85,9.42a2.75,2.75,0,0,0,3,2.59q5.46,0,10.93,0a2.86,2.86,0,0,0,3.12-2.9c.12-1.33.24-2.65.36-4,.16-1.9.32-3.8.49-5.77Zm9.39-2.65c3.19,0,6.37,0,9.56,0a2,2,0,0,0,1.4-.77,1.75,1.75,0,0,0-1.48-2.67c-1.07-.05-2.14,0-3.22,0-.81,0-1.44-.25-1.51-1.15s.42-1.18,1.24-1.3a1.83,1.83,0,0,0,1.75-2,1.86,1.86,0,0,0-2-1.72q-5.8,0-11.6,0A2.33,2.33,0,0,0,6.63,9,1.63,1.63,0,0,0,6,11a1.92,1.92,0,0,0,2,1.3c2,0,4,0,6,0,1,0,1.44.42,1.45,1.18S15,14.67,14,14.68c-1.49,0-3,0-4.49,0-1.76,0-3.51,0-5.27,0a1.84,1.84,0,0,0-1.87,1.85,1.62,1.62,0,0,0,1.86,1.63Z"/><path class="cls-1" d="M44.37,7.15a.61.61,0,0,1-.2.53.82.82,0,0,1-.48.14H39.8V18.91a.85.85,0,0,1-.15.51.6.6,0,0,1-.52.21h-.06a1.38,1.38,0,0,1-.36-.05,1.27,1.27,0,0,1-.36-.16,1,1,0,0,1-.28-.25.54.54,0,0,1-.11-.33v-11h-3.8a.59.59,0,0,1-.32-.09.78.78,0,0,1-.24-.24,1.25,1.25,0,0,1-.15-.33,1.23,1.23,0,0,1-.05-.34V6.75a.65.65,0,0,1,.18-.53.83.83,0,0,1,.52-.14h9.5a.55.55,0,0,1,.32.1.87.87,0,0,1,.24.25,1.23,1.23,0,0,1,.15.33,1.28,1.28,0,0,1,.05.36Z"/><path class="cls-1" d="M49.83,16.89a4.51,4.51,0,0,1-.75,1.46,3.69,3.69,0,0,1-1.14,1,2.89,2.89,0,0,1-1.4.36A3.3,3.3,0,0,1,45,19.34a3.23,3.23,0,0,1-1.09-.91,4.08,4.08,0,0,1-.66-1.31A6,6,0,0,1,43,15.6a5.43,5.43,0,0,1,.19-1.72,5,5,0,0,1,.69-1.51A3.69,3.69,0,0,1,45,11.3a2.7,2.7,0,0,1,1.45-.4,3.38,3.38,0,0,1,1.57.34,3.33,3.33,0,0,1,1.11.92,4.1,4.1,0,0,1,.68,1.33A6.12,6.12,0,0,1,50,15.06,5.32,5.32,0,0,1,49.83,16.89Zm-1.62-2.72a2.64,2.64,0,0,0-.33-.81,1.87,1.87,0,0,0-.57-.58,1.5,1.5,0,0,0-.84-.22,1.09,1.09,0,0,0-.73.28,2.41,2.41,0,0,0-.56.73,4.27,4.27,0,0,0-.36,1,3.46,3.46,0,0,0-.1,1,5,5,0,0,0,.11.89,2.88,2.88,0,0,0,.3.81,1.71,1.71,0,0,0,.53.58,1.43,1.43,0,0,0,.82.22,1.19,1.19,0,0,0,.72-.25,2.29,2.29,0,0,0,.6-.68,3.92,3.92,0,0,0,.4-1,3.48,3.48,0,0,0,.12-1.12A4.6,4.6,0,0,0,48.21,14.17Z"/><path class="cls-1" d="M56.37,11.7c0,.08,0,.16,0,.24a.75.75,0,0,1-.21.54.82.82,0,0,1-.46.11,3.26,3.26,0,0,0-.79.1,2.14,2.14,0,0,0-.76.36,2.06,2.06,0,0,0-.58.69,2.46,2.46,0,0,0-.25,1.13V19a.92.92,0,0,1-.12.49.5.5,0,0,1-.46.19h-.07a1.1,1.1,0,0,1-.32-.05,1.29,1.29,0,0,1-.31-.14.76.76,0,0,1-.23-.22A.55.55,0,0,1,51.7,19V11.59a1,1,0,0,1,.11-.48.49.49,0,0,1,.47-.2h0a1.41,1.41,0,0,1,.68.16.62.62,0,0,1,.31.6V12a4.35,4.35,0,0,1,1.07-.84,2.6,2.6,0,0,1,1.27-.33.57.57,0,0,1,.51.19,1.21,1.21,0,0,1,.16.46A.84.84,0,0,1,56.37,11.7Z"/><path class="cls-1" d="M63.68,16.89a4.51,4.51,0,0,1-.75,1.46,3.69,3.69,0,0,1-1.14,1,2.89,2.89,0,0,1-1.4.36,3.3,3.3,0,0,1-1.55-.34,3.23,3.23,0,0,1-1.09-.91,4.08,4.08,0,0,1-.66-1.31,6,6,0,0,1-.25-1.53A5.43,5.43,0,0,1,57,13.87a5,5,0,0,1,.69-1.51,3.69,3.69,0,0,1,1.1-1.07,2.7,2.7,0,0,1,1.45-.4,3.38,3.38,0,0,1,1.57.34,3.33,3.33,0,0,1,1.11.92,4.1,4.1,0,0,1,.68,1.33,6.12,6.12,0,0,1,.26,1.57A5.32,5.32,0,0,1,63.68,16.89Zm-1.62-2.72a2.64,2.64,0,0,0-.33-.81,1.87,1.87,0,0,0-.57-.58,1.5,1.5,0,0,0-.84-.22,1.09,1.09,0,0,0-.73.28,2.41,2.41,0,0,0-.56.73,4.27,4.27,0,0,0-.36,1,3.46,3.46,0,0,0-.1,1,5,5,0,0,0,.11.89,2.88,2.88,0,0,0,.3.81,1.71,1.71,0,0,0,.53.58,1.43,1.43,0,0,0,.82.22,1.19,1.19,0,0,0,.72-.25,2.29,2.29,0,0,0,.6-.68,3.92,3.92,0,0,0,.4-1,3.48,3.48,0,0,0,.12-1.12A4.6,4.6,0,0,0,62.06,14.17Z"/><path class="cls-1" d="M72.4,16.84l0,.27a1.86,1.86,0,0,0,0,.25,1.38,1.38,0,0,0,.16.44A.36.36,0,0,0,73,18a1,1,0,0,0,.4-.13,1.75,1.75,0,0,0,.4-.25,1.17,1.17,0,0,1,.27-.22.64.64,0,0,1,.28-.05.41.41,0,0,1,.26.13,1.76,1.76,0,0,1,.26.3,3.21,3.21,0,0,1,.2.33.64.64,0,0,1,.08.2v0a.69.69,0,0,1-.1.37,1.21,1.21,0,0,1-.27.31h0a4.56,4.56,0,0,1-.78.49,2.53,2.53,0,0,1-1.16.24,3,3,0,0,1-.7-.09,1.89,1.89,0,0,1-.69-.33,1.87,1.87,0,0,1-.54-.66,2.37,2.37,0,0,1-.22-1.09l0-3.58c0-.15,0-.31,0-.47a1.54,1.54,0,0,0-.09-.45.88.88,0,0,0-.22-.34.53.53,0,0,0-.38-.13,3,3,0,0,0-.89.14,2,2,0,0,0-.84.53,2.92,2.92,0,0,0-.63,1.07,5.35,5.35,0,0,0-.25,1.78V19a.89.89,0,0,1-.13.49.56.56,0,0,1-.5.19h-.09a1.22,1.22,0,0,1-.34-.05,1.4,1.4,0,0,1-.33-.14.91.91,0,0,1-.25-.22.5.5,0,0,1-.1-.31V11.59a.94.94,0,0,1,.12-.48.55.55,0,0,1,.51-.2h.07a1.31,1.31,0,0,1,.35.05,1.35,1.35,0,0,1,.34.15.84.84,0,0,1,.25.24.55.55,0,0,1,.1.32v.85a4.52,4.52,0,0,1,1.18-1.19,2.48,2.48,0,0,1,1.4-.43,2.69,2.69,0,0,1,1.21.24,2,2,0,0,1,.76.66,2.55,2.55,0,0,1,.39,1,6.15,6.15,0,0,1,.1,1.16Z"/><path class="cls-1" d="M80.35,11.2a.73.73,0,0,1-.16.54.64.64,0,0,1-.46.16H78.18V16c0,.2,0,.42,0,.66a4.07,4.07,0,0,0,.09.71,1.39,1.39,0,0,0,.16.44.36.36,0,0,0,.34.16,1,1,0,0,0,.4-.13,1.75,1.75,0,0,0,.4-.25,1.19,1.19,0,0,1,.27-.22.64.64,0,0,1,.28-.05.41.41,0,0,1,.26.13,1.69,1.69,0,0,1,.26.3,3.08,3.08,0,0,1,.2.33.64.64,0,0,1,.08.2v0a.69.69,0,0,1-.1.37,1.2,1.2,0,0,1-.27.31l0,0a4.52,4.52,0,0,1-.78.49,2.52,2.52,0,0,1-1.16.24,1.71,1.71,0,0,1-1.35-.51,3.11,3.11,0,0,1-.65-1.45q0-.34-.07-.77t0-.86V11.9h-.67a.82.82,0,0,1-.38-.07.53.53,0,0,1-.22-.2.77.77,0,0,1-.1-.29,2.49,2.49,0,0,1,0-.34v-.06a.7.7,0,0,1,.18-.54.65.65,0,0,1,.45-.16h.76V8.45a.61.61,0,0,1,.09-.34.78.78,0,0,1,.24-.24,1.08,1.08,0,0,1,.33-.14,1.41,1.41,0,0,1,.34,0h.07a.51.51,0,0,1,.46.19,1,1,0,0,1,.12.53v1.82h1.45c.32,0,.52.07.6.22a1.51,1.51,0,0,1,.12.69Z"/><path class="cls-1" d="M88.48,16.89a4.51,4.51,0,0,1-.75,1.46,3.69,3.69,0,0,1-1.14,1,2.89,2.89,0,0,1-1.4.36,3.3,3.3,0,0,1-1.55-.34,3.23,3.23,0,0,1-1.09-.91,4.08,4.08,0,0,1-.66-1.31,6,6,0,0,1-.25-1.53,5.43,5.43,0,0,1,.19-1.72,5,5,0,0,1,.69-1.51,3.69,3.69,0,0,1,1.1-1.07,2.7,2.7,0,0,1,1.45-.4,3.38,3.38,0,0,1,1.57.34,3.33,3.33,0,0,1,1.11.92,4.1,4.1,0,0,1,.68,1.33,6.12,6.12,0,0,1,.26,1.57A5.32,5.32,0,0,1,88.48,16.89Zm-1.62-2.72a2.64,2.64,0,0,0-.33-.81,1.87,1.87,0,0,0-.57-.58,1.5,1.5,0,0,0-.84-.22,1.09,1.09,0,0,0-.73.28,2.41,2.41,0,0,0-.56.73,4.27,4.27,0,0,0-.36,1,3.46,3.46,0,0,0-.1,1,5,5,0,0,0,.11.89,2.88,2.88,0,0,0,.3.81,1.71,1.71,0,0,0,.53.58,1.43,1.43,0,0,0,.82.22,1.19,1.19,0,0,0,.72-.25,2.29,2.29,0,0,0,.6-.68,3.92,3.92,0,0,0,.4-1A3.48,3.48,0,0,0,87,15.06,4.6,4.6,0,0,0,86.87,14.17Z"/><path class="cls-1" d="M44.71,23.82a3.51,3.51,0,0,1-.22.34,2.08,2.08,0,0,1-.27.31.4.4,0,0,1-.26.13.84.84,0,0,1-.33-.05l-.33-.16,0,0-.18-.09a5.71,5.71,0,0,0-1-.37,5.8,5.8,0,0,0-1.51-.16,5.65,5.65,0,0,0-2.12.39,4.94,4.94,0,0,0-1.66,1.07,4.79,4.79,0,0,0-1.07,1.62,5.11,5.11,0,0,0-.37,2,3.6,3.6,0,0,0,.13,1,4.5,4.5,0,0,0,.75,1.76A5.49,5.49,0,0,0,37.6,33a6,6,0,0,0,1.66.82,5.89,5.89,0,0,0,1.79.28q.46,0,.82,0a4.48,4.48,0,0,0,.65-.1,3.76,3.76,0,0,0,.55-.17l.53-.24.16-.07.1-.07.25-.07a.77.77,0,0,1,.25,0,.73.73,0,0,1,.37.1,1,1,0,0,1,.29.25,1.19,1.19,0,0,1,.19.33.93.93,0,0,1,.07.33.81.81,0,0,1-.13.48,1.11,1.11,0,0,1-.47.33l-.68.28a6.17,6.17,0,0,1-.74.22,7.84,7.84,0,0,1-.92.16,11,11,0,0,1-1.22.06,8,8,0,0,1-2.45-.39,7.79,7.79,0,0,1-2.22-1.12,7.41,7.41,0,0,1-1.74-1.78,6.5,6.5,0,0,1-1-2.36,4.61,4.61,0,0,1-.11-.68q0-.38,0-.75A7,7,0,0,1,34,25.94a6.08,6.08,0,0,1,1.49-2.13,6.45,6.45,0,0,1,2.26-1.33A8.58,8.58,0,0,1,40.62,22a8.73,8.73,0,0,1,1.2.07,8.42,8.42,0,0,1,1,.19,6.15,6.15,0,0,1,.75.25l.58.24.15.06h0a1.1,1.1,0,0,1,.43.37.74.74,0,0,1,.13.37A.6.6,0,0,1,44.71,23.82Z"/><path class="cls-1" d="M51.47,34.16v.09a4.67,4.67,0,0,1-1.22,1.19,2.48,2.48,0,0,1-1.37.42,2.73,2.73,0,0,1-1.22-.24A2,2,0,0,1,46.9,35a2.54,2.54,0,0,1-.39-1,6.14,6.14,0,0,1-.1-1.16V27.76a.89.89,0,0,1,.13-.48.55.55,0,0,1,.5-.2h.06a1.56,1.56,0,0,1,.37,0,1.29,1.29,0,0,1,.34.13.79.79,0,0,1,.25.22.55.55,0,0,1,.1.33v5q0,.22,0,.47a2.06,2.06,0,0,0,.09.45.8.8,0,0,0,.21.34.55.55,0,0,0,.4.13,2,2,0,0,0,.92-.25,2.81,2.81,0,0,0,.85-.7,3.56,3.56,0,0,0,.61-1.1,4.08,4.08,0,0,0,.22-1.45V27.76a.93.93,0,0,1,.12-.48.54.54,0,0,1,.51-.2h.06a1.31,1.31,0,0,1,.35.05,1.35,1.35,0,0,1,.34.15.92.92,0,0,1,.26.24.53.53,0,0,1,.1.32v5.62a3.1,3.1,0,0,0,.12.44q.06.16.3.16a1,1,0,0,0,.4-.13,1.77,1.77,0,0,0,.4-.25,1.19,1.19,0,0,1,.27-.22.65.65,0,0,1,.28-.05.41.41,0,0,1,.26.13,1.71,1.71,0,0,1,.26.3,3.15,3.15,0,0,1,.2.33.64.64,0,0,1,.08.2v0a.69.69,0,0,1-.1.37,1.2,1.2,0,0,1-.27.31l0,0a4.52,4.52,0,0,1-.78.49,2.52,2.52,0,0,1-1.16.24,4,4,0,0,1-.78-.07,1.46,1.46,0,0,1-.57-.24,1.32,1.32,0,0,1-.4-.47,2.8,2.8,0,0,1-.25-.76Z"/><path class="cls-1" d="M64,29.22c0,.14,0,.29,0,.43v.27A6.38,6.38,0,0,1,63.66,32a7.24,7.24,0,0,1-1,1.91,5.45,5.45,0,0,1-1.45,1.38,3.2,3.2,0,0,1-1.75.53h-.33l-.3,0v6a1.35,1.35,0,0,1-.13.48q-.1.19-.48.19h-.06a1.5,1.5,0,0,1-.35,0,1.07,1.07,0,0,1-.34-.14.88.88,0,0,1-.25-.24.58.58,0,0,1-.1-.34V27.49a1.06,1.06,0,0,1,.11-.51.5.5,0,0,1,.48-.21h.08a1.5,1.5,0,0,1,.35,0,1.19,1.19,0,0,1,.34.13.76.76,0,0,1,.25.24.62.62,0,0,1,.1.34V28.6a5.69,5.69,0,0,1,1.29-1.31,2.45,2.45,0,0,1,1.44-.51,2.38,2.38,0,0,1,1.63.54A2.52,2.52,0,0,1,64,28.87,2.49,2.49,0,0,1,64,29.22Zm-1.76.28,0-.26a1.12,1.12,0,0,0-.26-.57.59.59,0,0,0-.44-.19,2.09,2.09,0,0,0-.91.23,2.84,2.84,0,0,0-.87.67,3.65,3.65,0,0,0-.66,1.09A4,4,0,0,0,58.82,32v1.73a.24.24,0,0,0,0,.1A.45.45,0,0,0,59,34a.68.68,0,0,0,.43.12,1.67,1.67,0,0,0,1-.39,4,4,0,0,0,.89-1A5.5,5.5,0,0,0,62,31.42,5.2,5.2,0,0,0,62.27,30v-.22C62.27,29.67,62.27,29.59,62.26,29.5Z"/><path class="cls-1" d="M71.56,34.09l.25,0a1,1,0,0,0,.4-.13,1.74,1.74,0,0,0,.4-.25,1.19,1.19,0,0,1,.27-.22.64.64,0,0,1,.28-.05.41.41,0,0,1,.26.13,1.69,1.69,0,0,1,.26.3,3.08,3.08,0,0,1,.2.33.64.64,0,0,1,.08.2v0a.7.7,0,0,1-.1.37,1.2,1.2,0,0,1-.27.31l0,0a4.52,4.52,0,0,1-.78.49,2.52,2.52,0,0,1-1.16.24,2,2,0,0,1-.43,0,1.28,1.28,0,0,1-.43-.2,3.63,3.63,0,0,1-.51-.44,9,9,0,0,1-.66-.75q-.37-.47-.86-1.16t-1.14-1.66l-.21.21v3.33a1.06,1.06,0,0,1-.11.51q-.11.21-.48.21h-.09a1.41,1.41,0,0,1-.34,0,1.32,1.32,0,0,1-.34-.13.79.79,0,0,1-.25-.22.55.55,0,0,1-.1-.33V22.3a1,1,0,0,1,.13-.5.53.53,0,0,1,.5-.22h.06a1.51,1.51,0,0,1,.35,0,1.07,1.07,0,0,1,.34.14.88.88,0,0,1,.25.24.59.59,0,0,1,.1.34V29.4L70,27h0l.2-.13a.48.48,0,0,1,.23-.05.8.8,0,0,1,.45.16,3,3,0,0,1,.4.33l0,.07h0a.55.55,0,0,1,.16.37.56.56,0,0,1-.06.29l-.15.23-2.37,2.24L70,32.15Z"/><path class="cls-1" d="M81.87,34l.07.07,0,0v0a.35.35,0,0,0,.25.08,1,1,0,0,0,.4-.13,1.77,1.77,0,0,0,.4-.25,1.17,1.17,0,0,1,.27-.22.64.64,0,0,1,.28-.05.41.41,0,0,1,.26.13,1.71,1.71,0,0,1,.26.3,3.12,3.12,0,0,1,.2.33.64.64,0,0,1,.08.2v0a.69.69,0,0,1-.1.37,1.21,1.21,0,0,1-.27.31v0a4.49,4.49,0,0,1-.78.49,2.8,2.8,0,0,1-1.78.16,1.3,1.3,0,0,1-1.36-1.48v-.24a5.52,5.52,0,0,1-1.34,1.25,2.66,2.66,0,0,1-1.45.47,2.49,2.49,0,0,1-1.68-.52,2.63,2.63,0,0,1-.81-1.49,4.19,4.19,0,0,1,0-.46q0-.28,0-.54a6.08,6.08,0,0,1,.4-2.07,7,7,0,0,1,1-1.85,5.56,5.56,0,0,1,1.48-1.34,3.37,3.37,0,0,1,1.78-.51,2.23,2.23,0,0,1,.41,0,2.32,2.32,0,0,1,.37.1.58.58,0,0,1,.52-.22h.06a1.51,1.51,0,0,1,.35,0,1.32,1.32,0,0,1,.34.13.88.88,0,0,1,.26.22.52.52,0,0,1,.1.33Zm-4.55.21a1.46,1.46,0,0,0,.84-.28,3.72,3.72,0,0,0,.74-.67,5.44,5.44,0,0,0,.59-.84,5.83,5.83,0,0,0,.39-.81q.18-.76.29-1.31a3.4,3.4,0,0,0,.08-.92.81.81,0,0,0-.21-.54.82.82,0,0,0-.58-.17,1.77,1.77,0,0,0-1.07.38,4,4,0,0,0-.92,1,5.37,5.37,0,0,0-.65,1.32,4.79,4.79,0,0,0-.26,1.43c0,.1,0,.21,0,.34a2.46,2.46,0,0,0,0,.35Q76.74,34.24,77.32,34.24Z"/><path class="cls-1" d="M91.45,34.09l.25,0a1,1,0,0,0,.4-.13,1.74,1.74,0,0,0,.4-.25,1.19,1.19,0,0,1,.27-.22.64.64,0,0,1,.28-.05.41.41,0,0,1,.26.13,1.69,1.69,0,0,1,.26.3,3.08,3.08,0,0,1,.2.33.64.64,0,0,1,.08.2v0a.7.7,0,0,1-.1.37,1.2,1.2,0,0,1-.27.31l0,0a4.52,4.52,0,0,1-.78.49,2.52,2.52,0,0,1-1.16.24,2,2,0,0,1-.43,0,1.28,1.28,0,0,1-.43-.2,3.63,3.63,0,0,1-.51-.44,9,9,0,0,1-.66-.75q-.37-.47-.86-1.16t-1.14-1.66l-.21.21v3.33a1.06,1.06,0,0,1-.11.51q-.11.21-.48.21h-.09a1.41,1.41,0,0,1-.34,0,1.32,1.32,0,0,1-.34-.13.79.79,0,0,1-.25-.22.55.55,0,0,1-.1-.33V22.3a1,1,0,0,1,.13-.5.53.53,0,0,1,.5-.22h.06a1.51,1.51,0,0,1,.35,0,1.07,1.07,0,0,1,.34.14.88.88,0,0,1,.25.24.59.59,0,0,1,.1.34V29.4L89.85,27h0l.2-.13a.48.48,0,0,1,.23-.05.8.8,0,0,1,.45.16,3,3,0,0,1,.4.33l0,.07h0a.55.55,0,0,1,.16.37.56.56,0,0,1-.06.29l-.15.23L88.7,30.52l1.16,1.63Z"/><path class="cls-1" d="M99.91,30.57a4,4,0,0,1-1,1,6,6,0,0,1-1.31.68,5.24,5.24,0,0,1-1.22.31v.24a1,1,0,0,0,0,.19,1.65,1.65,0,0,0,.22.58,1.18,1.18,0,0,0,.35.35,1.37,1.37,0,0,0,.43.18,2,2,0,0,0,.46.05,1.57,1.57,0,0,0,.7-.13,3.93,3.93,0,0,0,.52-.31h0a1.25,1.25,0,0,1,.27-.18.56.56,0,0,1,.22,0h.07a.38.38,0,0,1,.2.1,2,2,0,0,1,.26.25,2.14,2.14,0,0,1,.23.31.72.72,0,0,1,.11.28v0a.61.61,0,0,1-.09.31,1.35,1.35,0,0,1-.22.29,3.58,3.58,0,0,1-1.1.6,4,4,0,0,1-1.19.16,4,4,0,0,1-1.05-.13,2.58,2.58,0,0,1-.9-.44,2.7,2.7,0,0,1-.69-.78,3.4,3.4,0,0,1-.4-1.16,3.84,3.84,0,0,1-.09-.57c0-.22,0-.44,0-.66a6.56,6.56,0,0,1,.26-1.83,5.81,5.81,0,0,1,.73-1.61,4.15,4.15,0,0,1,1.11-1.15,2.45,2.45,0,0,1,1.42-.44,2.28,2.28,0,0,1,1.57.55,2,2,0,0,1,.62,1.57A2.37,2.37,0,0,1,99.91,30.57Zm-2.55.05a3.16,3.16,0,0,0,.66-.4,1.92,1.92,0,0,0,.43-.48,1.05,1.05,0,0,0,.17-.48,1,1,0,0,0-.16-.37.44.44,0,0,0-.37-.13.89.89,0,0,0-.54.19,2.06,2.06,0,0,0-.46.48,3.51,3.51,0,0,0-.37.68,6.33,6.33,0,0,0-.26.77A3.65,3.65,0,0,0,97.36,30.63Z"/><path class="cls-1" d="M106.41,28.15a1,1,0,0,1-.18.54.91.91,0,0,1-.34.36.44.44,0,0,1-.27.06.55.55,0,0,1-.19,0l-.22-.1h0a3.81,3.81,0,0,0-.52-.17,2.9,2.9,0,0,0-.76-.1,1,1,0,0,0-.49.13.49.49,0,0,0-.27.41.88.88,0,0,0,.22.51,2.44,2.44,0,0,0,.49.41l1.06.64a4.86,4.86,0,0,1,.59.45,3.61,3.61,0,0,1,.55.61,3.7,3.7,0,0,1,.41.74,2.18,2.18,0,0,1,.16.84,2.7,2.7,0,0,1-.21,1.13,2,2,0,0,1-.58.75,2.34,2.34,0,0,1-.88.42,4.56,4.56,0,0,1-1.1.13,3.37,3.37,0,0,1-.6-.06,6.4,6.4,0,0,1-.66-.16,5.74,5.74,0,0,1-.63-.22,2.64,2.64,0,0,1-.51-.28v0a.57.57,0,0,1-.3-.28.86.86,0,0,1-.06-.31v0a.9.9,0,0,1,.16-.43,2.2,2.2,0,0,1,.32-.43l0,0a.39.39,0,0,1,.19-.12H102l.19,0a.75.75,0,0,1,.21.13,2.58,2.58,0,0,0,.69.35,2.16,2.16,0,0,0,.7.14,1.68,1.68,0,0,0,.92-.22.68.68,0,0,0,.34-.6,1.05,1.05,0,0,0-.25-.72,2.49,2.49,0,0,0-.59-.49L103,31.46a3.79,3.79,0,0,1-1-.95,2.16,2.16,0,0,1-.43-1.32,2.27,2.27,0,0,1,.2-1,1.79,1.79,0,0,1,.53-.66,2.08,2.08,0,0,1,.72-.35,3.05,3.05,0,0,1,.78-.1,5.05,5.05,0,0,1,1.22.14,5.9,5.9,0,0,1,1,.32v0a.64.64,0,0,1,.27.23,1.34,1.34,0,0,1,.16.35Z"/></g></g></svg>