<?xml version="1.0" encoding="utf-8"?>
<!-- Generator: Adobe Illustrator 21.0.2, SVG Export Plug-In . SVG Version: 6.00 Build 0)  -->
<svg version="1.1" id="Capa_1" xmlns="http://www.w3.org/2000/svg" xmlns:xlink="http://www.w3.org/1999/xlink" x="0px" y="0px"
	 viewBox="0 0 30 38" style="enable-background:new 0 0 30 38;" xml:space="preserve">
<style type="text/css">
	.st0{fill:#332756;}
</style>
<g>
	<g>
		<path class="st0" d="M6.1,18.7c0.4,1.4,0.8,2.8,1.2,4.2c0.3,1,0.6,2,0.8,2.9c0.3,1.2,0.7,2.5,1,3.7C9.2,29.9,9.3,30,9.7,30
			c5.2,0,10.5,0,15.7,0c0.6,0,0.6,0,0.8-0.5c0.3-1.2,0.7-2.4,1-3.6c0.3-1,0.5-2.1,0.8-3.1c0.3-1.2,0.7-2.5,1-3.7
			c0.1-0.4,0.2-0.6,0.5-0.9c0.2-0.2,0.3-0.4,0.5-0.6c-8.3,0-15.1,0-23.4,0H5.9L6.1,18.7z"/>
	</g>
	<path class="st0" d="M28,16.5c0,0-0.1,0-0.1,0c-1.3-4.2-4.5-5-8.1-5.7c-3.6-0.7-4.7-1.5-4.7-1.5c-3.3-1.6-1-4.1-0.2-4.9
		c0,0,0-0.1-0.1-0.1c-3.5,1.6-3.7,2.8-3.7,2.8C11,7.5,11,7.7,11,8c0,3.3,5,3.7,5,3.7c6.6,1.4,8.3,3.5,8.7,4.1c0,0-0.1,0.1-0.1,0
		c-1.2-0.8-3-1.5-4.5-1.9c-1.5-0.4-2.7-0.6-2.7-0.6c-6.8-0.8-7.9-3.6-8.1-4.1c0,0-0.1,0-0.1,0c-2,1.4-2,2.9-1.7,3.9
		c0.2,0.7,0.9,1.3,1.7,1.6c6.1,2.2,15.8,1.4,17.3,1.3c0.1,0,0.1,0,0,0.1c-3.4,2-11.7,1.4-16.8,0.1c-0.2,0.2-1.1,0.6-2.3,0.6
		c-1.4,0-1.9-0.8-1.9-0.8c0.8,0.2,1.8-0.1,2.3-0.3c-1.1-0.4-1.9-0.8-2.1-1.2c-0.4-0.6-0.5-1.2-0.6-1.8c-0.1-1.2,0.4-2.3,1.2-3.4
		c2.4-2.8,4.9-4.7,7.6-6.2c2.4-1.3,3.4-2.5,3.7-3c0,0,0.1,0,0.1,0c0.1,2.4,1.2,3.7,1.7,4.1c0.1,0.1,0.3,0.2,0.4,0.3
		c6.2,2.9,5.7,5.4,5.4,5.9c0,0-0.1,0-0.1,0c-1.4-2.8-4.1-3.7-4.6-3.9c-0.1,0-0.1,0-0.2-0.1c-2.3-0.9-3-1.8-3.1-2.1c0,0-0.1,0-0.1,0
		c-5.4,3.4-0.6,4.4-0.6,4.4c7,1.5,8.5,2.5,8.5,2.5C29.9,14,28.4,16,28,16.5z"/>
	<ellipse class="st0" cx="22.6" cy="35.4" rx="2.6" ry="2.5"/>
	<ellipse class="st0" cx="10.3" cy="35.4" rx="2.7" ry="2.5"/>
	<polygon class="st0" points="26.4,32.5 6.9,32.5 2.7,16.2 0,16.2 0,14.7 4.2,14.7 8.4,31 26.4,31 	"/>
</g>
</svg>
