<svg xmlns="http://www.w3.org/2000/svg" viewBox="0 0 23.12 26.79"><defs><style>.cls-1{fill:#332756;}</style></defs><title>cerrar</title><g id="Capa_2" data-name="Capa 2"><g id="Capa_1-2" data-name="Capa 1"><path class="cls-1" d="M10.23,12.07l-6-8.88a2.68,2.68,0,0,1-.39-1.25A2,2,0,0,1,5.84,0,1.84,1.84,0,0,1,7.58,1.11l4.83,8.4L19.5,1.06A2.35,2.35,0,0,1,21.43,0a1.59,1.59,0,0,1,1.69,1.54,2.55,2.55,0,0,1-.72,1.59l-8.11,9.31,7,10.47A3.76,3.76,0,0,1,21.91,25c-.1,1.25-.68,1.79-1.69,1.79A2.68,2.68,0,0,1,18,25.29l-6-9.85L3.48,25.34a3.13,3.13,0,0,1-2.22,1.35A1.12,1.12,0,0,1,0,25.43a4,4,0,0,1,1-2.32Z"/></g></g></svg>