<svg xmlns="http://www.w3.org/2000/svg" viewBox="0 0 38.65 44.72"><defs><style>.cls-1{fill:#332756;}</style></defs><title>flecha2</title><g id="Capa_2" data-name="Capa 2"><g id="Capa_1-2" data-name="Capa 1"><path class="cls-1" d="M19.33,43.9h0a2.69,2.69,0,0,1-2.7-2.7V2.7A2.69,2.69,0,0,1,19.33,0h0A2.69,2.69,0,0,1,22,2.7V41.2A2.69,2.69,0,0,1,19.33,43.9Z"/><path class="cls-1" d="M17.62,43.9h0a2.84,2.84,0,0,1,0-4l16.2-16.2a2.84,2.84,0,0,1,4,0h0a2.84,2.84,0,0,1,0,4L21.62,43.9A2.84,2.84,0,0,1,17.62,43.9Z"/><path class="cls-1" d="M21,43.9h0a2.84,2.84,0,0,1-4,0L.83,27.7a2.84,2.84,0,0,1,0-4h0a2.84,2.84,0,0,1,4,0L21,39.9A2.67,2.67,0,0,1,21,43.9Z"/></g></g></svg>