<?xml version="1.0" encoding="utf-8"?>
<!-- Generator: Adobe Illustrator 21.0.2, SVG Export Plug-In . SVG Version: 6.00 Build 0)  -->
<svg version="1.1" id="Capa_1" xmlns="http://www.w3.org/2000/svg" xmlns:xlink="http://www.w3.org/1999/xlink" x="0px" y="0px"
	 viewBox="0 0 40 45" style="enable-background:new 0 0 40 45;" xml:space="preserve">
<style type="text/css">
	.st0{fill:#E5AF61;}
</style>
<g>
	<path class="st0" d="M20,44L20,44c-1.5,0-2.7-1.2-2.7-2.7V2.8c0-1.5,1.2-2.7,2.7-2.7h0c1.5,0,2.7,1.2,2.7,2.7v38.5
		C22.7,42.8,21.5,44,20,44z"/>
	<path class="st0" d="M18.3,44L18.3,44c-1.1-1.1-1.1-2.9,0-4l16.2-16.2c1.1-1.1,2.9-1.1,4,0l0,0c1.1,1.1,1.1,2.9,0,4L22.3,44
		C21.2,45.1,19.4,45.1,18.3,44z"/>
	<path class="st0" d="M21.7,44L21.7,44c-1.1,1.1-2.9,1.1-4,0L1.5,27.8c-1.1-1.1-1.1-2.9,0-4l0,0c1.1-1.1,2.9-1.1,4,0L21.7,40
		C22.9,41.1,22.9,42.9,21.7,44z"/>
</g>
</svg>
