<?xml version="1.0" encoding="utf-8"?>
<!-- Generator: Adobe Illustrator 21.0.2, SVG Export Plug-In . SVG Version: 6.00 Build 0)  -->
<svg version="1.1" id="Capa_1" xmlns="http://www.w3.org/2000/svg" xmlns:xlink="http://www.w3.org/1999/xlink" x="0px" y="0px"
	 viewBox="0 0 110 45" style="enable-background:new 0 0 110 45;" xml:space="preserve">
<style type="text/css">
	.st0{fill:#332756;}
</style>
<g>
	<g>
		<path class="st0" d="M19.9,7c4.4,0.6,5.7,2.3,4.9,6.3c0.3,0.1,0.6,0.2,0.9,0.3c3,1,3.9,4.8,1.8,7c-0.5,0.5-0.6,1-0.7,1.7
			c-0.3,3.5-0.6,7-1,10.6c-0.3,2.5-2.5,4.6-5,4.6c-4.1,0-8.2,0.1-12.3,0c-2.5,0-4.7-2.1-5-4.6c-0.4-3.6-0.7-7.3-1-11
			c0-0.4-0.2-0.8-0.4-1c-2.5-2.8-1.5-6.4,2.1-7.5c0.1,0,0.2-0.1,0.2-0.1c0-1.1-0.2-2.1,0-3c0.4-2,2.1-3.2,4.3-3.2c2.2,0,4.5,0,6.7,0
			c1.3,0,2.2-0.7,2.2-1.8c0.1-1-0.7-1.8-1.9-2c-0.8-0.1-1.2-0.5-1.2-1.3c0.1-0.8,0.6-1.1,1.3-1.1c2.4,0,4.6,2.4,4.2,4.9
			C20.1,6.2,20,6.6,19.9,7z M5.2,22.1c0,0.3,0,0.5,0,0.7C5.5,26,5.7,29.1,6,32.3C6.2,34,7.3,35,9.1,35c3.7,0,7.4,0,11.1,0
			c1.9,0,3-1,3.2-3c0.1-1.3,0.2-2.7,0.4-4c0.2-1.9,0.3-3.9,0.5-5.9C17.8,22.1,11.6,22.1,5.2,22.1z M14.7,19.4c3.2,0,6.5,0,9.7,0
			c0.5,0,1.2-0.4,1.4-0.8c0.8-1.1-0.1-2.6-1.5-2.7c-1.1-0.1-2.2,0-3.3,0c-0.8,0-1.5-0.3-1.5-1.2c-0.1-0.8,0.4-1.2,1.3-1.3
			c1.2-0.2,1.8-1,1.8-2c-0.1-1-0.9-1.7-2-1.7c-3.9,0-7.9,0-11.8,0c-0.4,0-0.9,0.2-1.3,0.4c-0.7,0.5-0.9,1.2-0.6,2
			c0.3,0.9,1.1,1.3,2,1.3c2,0,4.1,0,6.1,0c1,0,1.5,0.4,1.5,1.2c0,0.8-0.5,1.2-1.5,1.2c-1.5,0-3,0-4.6,0c-1.8,0-3.6,0-5.4,0
			c-1.1,0-1.9,0.9-1.9,1.9c0,1,0.7,1.7,1.9,1.7C8.3,19.4,11.5,19.4,14.7,19.4z"/>
	</g>
	<g>
		<path class="st0" d="M45.9,8.2c0,0.3-0.1,0.4-0.2,0.5c-0.1,0.1-0.3,0.1-0.5,0.1h-3.9v11.3c0,0.2-0.1,0.4-0.2,0.5s-0.3,0.2-0.5,0.2
			h-0.1c-0.1,0-0.2,0-0.4-0.1c-0.1,0-0.3-0.1-0.4-0.2c-0.1-0.1-0.2-0.2-0.3-0.3c-0.1-0.1-0.1-0.2-0.1-0.3V8.9h-3.9
			c-0.1,0-0.2,0-0.3-0.1c-0.1-0.1-0.2-0.1-0.2-0.2s-0.1-0.2-0.2-0.3c0-0.1-0.1-0.2-0.1-0.3V7.8c0-0.3,0.1-0.4,0.2-0.5
			c0.1-0.1,0.3-0.1,0.5-0.1h9.7c0.1,0,0.2,0,0.3,0.1c0.1,0.1,0.2,0.1,0.2,0.3c0.1,0.1,0.1,0.2,0.2,0.3C45.8,7.9,45.9,8,45.9,8.2
			L45.9,8.2z"/>
		<path class="st0" d="M51.4,18.1c-0.2,0.6-0.4,1.1-0.8,1.5c-0.3,0.4-0.7,0.8-1.2,1c-0.4,0.2-0.9,0.4-1.4,0.4
			c-0.6,0-1.1-0.1-1.6-0.3c-0.4-0.2-0.8-0.5-1.1-0.9c-0.3-0.4-0.5-0.8-0.7-1.3c-0.2-0.5-0.2-1-0.3-1.6c0-0.6,0-1.2,0.2-1.8
			c0.2-0.6,0.4-1.1,0.7-1.5c0.3-0.4,0.7-0.8,1.1-1.1S47.4,12,48,12c0.6,0,1.2,0.1,1.6,0.3s0.8,0.5,1.1,0.9c0.3,0.4,0.5,0.8,0.7,1.4
			c0.2,0.5,0.2,1,0.3,1.6C51.7,16.9,51.6,17.5,51.4,18.1z M49.8,15.3c-0.1-0.3-0.2-0.6-0.3-0.8c-0.2-0.2-0.3-0.4-0.6-0.6
			c-0.2-0.2-0.5-0.2-0.8-0.2c-0.3,0-0.5,0.1-0.7,0.3c-0.2,0.2-0.4,0.4-0.6,0.7c-0.2,0.3-0.3,0.6-0.4,1c-0.1,0.4-0.1,0.7-0.1,1
			c0,0.3,0,0.6,0.1,0.9c0.1,0.3,0.2,0.6,0.3,0.8c0.1,0.2,0.3,0.4,0.5,0.6c0.2,0.2,0.5,0.2,0.8,0.2c0.3,0,0.5-0.1,0.7-0.3
			c0.2-0.2,0.4-0.4,0.6-0.7c0.2-0.3,0.3-0.6,0.4-1c0.1-0.4,0.1-0.7,0.1-1.1C49.9,15.9,49.8,15.6,49.8,15.3z"/>
		<path class="st0" d="M58.1,12.8c0,0.1,0,0.2,0,0.2c0,0.3-0.1,0.5-0.2,0.6c-0.1,0.1-0.3,0.1-0.5,0.1c-0.3,0-0.5,0-0.8,0.1
			c-0.3,0.1-0.5,0.2-0.8,0.4c-0.2,0.2-0.4,0.4-0.6,0.7c-0.2,0.3-0.2,0.7-0.3,1.1v4.2c0,0.2,0,0.4-0.1,0.5c-0.1,0.1-0.2,0.2-0.5,0.2
			h-0.1c-0.1,0-0.2,0-0.3-0.1c-0.1,0-0.2-0.1-0.3-0.1c-0.1-0.1-0.2-0.1-0.2-0.2c-0.1-0.1-0.1-0.2-0.1-0.3v-7.5c0-0.2,0-0.4,0.1-0.5
			c0.1-0.1,0.2-0.2,0.5-0.2h0c0.3,0,0.5,0.1,0.7,0.2c0.2,0.1,0.3,0.3,0.3,0.6v0.4c0.3-0.3,0.7-0.6,1.1-0.8c0.4-0.2,0.8-0.3,1.3-0.3
			c0.3,0,0.4,0.1,0.5,0.2c0.1,0.1,0.1,0.3,0.2,0.5C58.1,12.7,58.1,12.7,58.1,12.8z"/>
		<path class="st0" d="M65.5,18.1c-0.2,0.6-0.4,1.1-0.8,1.5c-0.3,0.4-0.7,0.8-1.2,1c-0.4,0.2-0.9,0.4-1.4,0.4
			c-0.6,0-1.1-0.1-1.6-0.3c-0.4-0.2-0.8-0.5-1.1-0.9c-0.3-0.4-0.5-0.8-0.7-1.3c-0.2-0.5-0.2-1-0.3-1.6c0-0.6,0-1.2,0.2-1.8
			c0.2-0.6,0.4-1.1,0.7-1.5c0.3-0.4,0.7-0.8,1.1-1.1S61.5,12,62,12c0.6,0,1.2,0.1,1.6,0.3c0.4,0.2,0.8,0.5,1.1,0.9
			c0.3,0.4,0.5,0.8,0.7,1.4c0.2,0.5,0.2,1,0.3,1.6C65.8,16.9,65.7,17.5,65.5,18.1z M63.9,15.3c-0.1-0.3-0.2-0.6-0.3-0.8
			c-0.2-0.2-0.3-0.4-0.6-0.6c-0.2-0.2-0.5-0.2-0.8-0.2c-0.3,0-0.5,0.1-0.7,0.3c-0.2,0.2-0.4,0.4-0.6,0.7c-0.2,0.3-0.3,0.6-0.4,1
			c-0.1,0.4-0.1,0.7-0.1,1c0,0.3,0,0.6,0.1,0.9c0.1,0.3,0.2,0.6,0.3,0.8c0.1,0.2,0.3,0.4,0.5,0.6c0.2,0.2,0.5,0.2,0.8,0.2
			c0.3,0,0.5-0.1,0.7-0.3c0.2-0.2,0.4-0.4,0.6-0.7c0.2-0.3,0.3-0.6,0.4-1s0.1-0.7,0.1-1.1C64,15.9,63.9,15.6,63.9,15.3z"/>
		<path class="st0" d="M74.4,18c0,0.1,0,0.2,0,0.3c0,0.1,0,0.2,0,0.3c0,0.2,0.1,0.3,0.2,0.4c0.1,0.1,0.2,0.2,0.3,0.2
			c0.1,0,0.2,0,0.4-0.1c0.2-0.1,0.3-0.2,0.4-0.3c0.1-0.1,0.2-0.2,0.3-0.2c0.1,0,0.2-0.1,0.3-0.1c0.1,0,0.2,0,0.3,0.1
			c0.1,0.1,0.2,0.2,0.3,0.3c0.1,0.1,0.1,0.2,0.2,0.3c0.1,0.1,0.1,0.2,0.1,0.2v0c0,0.1,0,0.3-0.1,0.4c-0.1,0.1-0.2,0.2-0.3,0.3l0,0
			c-0.2,0.2-0.5,0.3-0.8,0.5c-0.3,0.2-0.7,0.2-1.2,0.2c-0.2,0-0.5,0-0.7-0.1c-0.3-0.1-0.5-0.2-0.7-0.3c-0.2-0.2-0.4-0.4-0.5-0.7
			c-0.1-0.3-0.2-0.7-0.2-1.1l0-3.6c0-0.2,0-0.3,0-0.5s0-0.3-0.1-0.5c-0.1-0.1-0.1-0.3-0.2-0.3c-0.1-0.1-0.2-0.1-0.4-0.1
			c-0.3,0-0.6,0-0.9,0.1c-0.3,0.1-0.6,0.3-0.8,0.5c-0.3,0.3-0.5,0.6-0.6,1.1c-0.2,0.5-0.3,1.1-0.3,1.8v3c0,0.2,0,0.4-0.1,0.5
			c-0.1,0.1-0.3,0.2-0.5,0.2h-0.1c-0.1,0-0.2,0-0.3-0.1c-0.1,0-0.2-0.1-0.3-0.1c-0.1-0.1-0.2-0.1-0.3-0.2c-0.1-0.1-0.1-0.2-0.1-0.3
			v-7.5c0-0.2,0-0.4,0.1-0.5c0.1-0.1,0.3-0.2,0.5-0.2h0.1c0.1,0,0.2,0,0.4,0.1c0.1,0,0.2,0.1,0.3,0.2c0.1,0.1,0.2,0.1,0.3,0.2
			s0.1,0.2,0.1,0.3v0.9c0.4-0.5,0.8-0.9,1.2-1.2c0.4-0.3,0.9-0.4,1.4-0.4c0.5,0,0.9,0.1,1.2,0.2s0.6,0.4,0.8,0.7
			c0.2,0.3,0.3,0.6,0.4,1c0.1,0.4,0.1,0.8,0.1,1.2V18z"/>
		<path class="st0" d="M82.5,12.3c0,0.3-0.1,0.4-0.2,0.6C82.2,13,82,13,81.8,13h-1.6v4.1c0,0.2,0,0.4,0,0.7c0,0.2,0,0.5,0.1,0.7
			c0,0.2,0.1,0.3,0.2,0.4c0.1,0.1,0.2,0.2,0.3,0.2c0.1,0,0.2,0,0.4-0.1c0.2-0.1,0.3-0.2,0.4-0.3c0.1-0.1,0.2-0.2,0.3-0.2
			c0.1,0,0.2-0.1,0.3-0.1c0.1,0,0.2,0,0.3,0.1c0.1,0.1,0.2,0.2,0.3,0.3c0.1,0.1,0.1,0.2,0.2,0.3c0.1,0.1,0.1,0.2,0.1,0.2v0
			c0,0.1,0,0.3-0.1,0.4c-0.1,0.1-0.2,0.2-0.3,0.3l0,0c-0.2,0.2-0.5,0.3-0.8,0.5c-0.3,0.2-0.7,0.2-1.2,0.2c-0.6,0-1.1-0.2-1.4-0.5
			c-0.3-0.3-0.5-0.8-0.7-1.5c0-0.2-0.1-0.5-0.1-0.8c0-0.3,0-0.6,0-0.9V13h-0.7c-0.2,0-0.3,0-0.4-0.1c-0.1-0.1-0.2-0.1-0.2-0.2
			c-0.1-0.1-0.1-0.2-0.1-0.3c0-0.1,0-0.2,0-0.3V12c0-0.3,0.1-0.4,0.2-0.6c0.1-0.1,0.3-0.2,0.5-0.2h0.8V9.5c0-0.1,0-0.2,0.1-0.3
			c0.1-0.1,0.1-0.2,0.2-0.2c0.1-0.1,0.2-0.1,0.3-0.1c0.1,0,0.2,0,0.3,0h0.1c0.2,0,0.4,0.1,0.5,0.2s0.1,0.3,0.1,0.5v1.9h1.5
			c0.3,0,0.5,0.1,0.6,0.2C82.4,11.7,82.5,11.9,82.5,12.3L82.5,12.3z"/>
		<path class="st0" d="M90.7,18.1c-0.2,0.6-0.4,1.1-0.8,1.5c-0.3,0.4-0.7,0.8-1.2,1c-0.4,0.2-0.9,0.4-1.4,0.4
			c-0.6,0-1.1-0.1-1.6-0.3c-0.4-0.2-0.8-0.5-1.1-0.9c-0.3-0.4-0.5-0.8-0.7-1.3c-0.2-0.5-0.2-1-0.3-1.6c0-0.6,0-1.2,0.2-1.8
			c0.2-0.6,0.4-1.1,0.7-1.5c0.3-0.4,0.7-0.8,1.1-1.1s0.9-0.4,1.5-0.4c0.6,0,1.2,0.1,1.6,0.3s0.8,0.5,1.1,0.9
			c0.3,0.4,0.5,0.8,0.7,1.4c0.2,0.5,0.2,1,0.3,1.6C91,16.9,90.9,17.5,90.7,18.1z M89.1,15.3c-0.1-0.3-0.2-0.6-0.3-0.8
			c-0.2-0.2-0.3-0.4-0.6-0.6c-0.2-0.2-0.5-0.2-0.8-0.2c-0.3,0-0.5,0.1-0.7,0.3c-0.2,0.2-0.4,0.4-0.6,0.7c-0.2,0.3-0.3,0.6-0.4,1
			c-0.1,0.4-0.1,0.7-0.1,1c0,0.3,0,0.6,0.1,0.9c0.1,0.3,0.2,0.6,0.3,0.8c0.1,0.2,0.3,0.4,0.5,0.6c0.2,0.2,0.5,0.2,0.8,0.2
			c0.3,0,0.5-0.1,0.7-0.3c0.2-0.2,0.4-0.4,0.6-0.7c0.2-0.3,0.3-0.6,0.4-1c0.1-0.4,0.1-0.7,0.1-1.1C89.2,15.9,89.2,15.6,89.1,15.3z"
			/>
	</g>
	<g>
		<path class="st0" d="M46.2,25.2c-0.1,0.1-0.1,0.2-0.2,0.3c-0.1,0.1-0.2,0.2-0.3,0.3c-0.1,0.1-0.2,0.1-0.3,0.1
			c-0.1,0-0.3,0-0.3-0.1c-0.1,0-0.2-0.1-0.3-0.2l0,0l-0.2-0.1c-0.3-0.1-0.6-0.3-1-0.4c-0.4-0.1-0.9-0.2-1.5-0.2
			c-0.8,0-1.5,0.1-2.2,0.4c-0.7,0.3-1.2,0.6-1.7,1.1c-0.5,0.5-0.8,1-1.1,1.6c-0.3,0.6-0.4,1.3-0.4,2.1c0,0.4,0,0.7,0.1,1
			c0.1,0.7,0.4,1.3,0.8,1.8s0.8,1,1.3,1.3c0.5,0.4,1.1,0.6,1.7,0.8c0.6,0.2,1.2,0.3,1.8,0.3c0.3,0,0.6,0,0.8,0
			c0.2,0,0.5-0.1,0.7-0.1c0.2,0,0.4-0.1,0.6-0.2c0.2-0.1,0.4-0.2,0.5-0.2c0.1,0,0.1,0,0.2-0.1c0,0,0.1,0,0.1-0.1
			c0.1,0,0.2,0,0.3-0.1c0.1,0,0.2,0,0.3,0c0.1,0,0.3,0,0.4,0.1c0.1,0.1,0.2,0.1,0.3,0.3c0.1,0.1,0.1,0.2,0.2,0.3
			c0,0.1,0.1,0.2,0.1,0.3c0,0.2,0,0.4-0.1,0.5c-0.1,0.1-0.2,0.2-0.5,0.3c-0.2,0.1-0.5,0.2-0.7,0.3c-0.2,0.1-0.5,0.2-0.8,0.2
			s-0.6,0.1-0.9,0.2c-0.4,0-0.8,0.1-1.2,0.1c-0.8,0-1.7-0.1-2.5-0.4c-0.8-0.3-1.6-0.6-2.3-1.1c-0.7-0.5-1.3-1.1-1.8-1.8
			c-0.5-0.7-0.8-1.5-1-2.4c-0.1-0.2-0.1-0.4-0.1-0.7c0-0.3,0-0.5,0-0.8c0-1.1,0.2-2,0.5-2.9c0.4-0.8,0.9-1.6,1.5-2.2
			c0.6-0.6,1.4-1,2.3-1.4c0.9-0.3,1.8-0.5,2.9-0.5c0.5,0,0.9,0,1.2,0.1c0.4,0.1,0.7,0.1,1,0.2c0.3,0.1,0.5,0.2,0.8,0.3
			c0.2,0.1,0.4,0.2,0.6,0.2l0.2,0.1h0c0.2,0.1,0.3,0.2,0.4,0.4c0.1,0.1,0.1,0.3,0.1,0.4C46.3,25,46.3,25,46.2,25.2z"/>
		<path class="st0" d="M53.1,35.7C53.1,35.7,53.1,35.7,53.1,35.7c-0.4,0.6-0.8,1-1.2,1.3c-0.4,0.3-0.9,0.4-1.4,0.4
			c-0.5,0-0.9-0.1-1.2-0.2c-0.3-0.2-0.6-0.4-0.8-0.7c-0.2-0.3-0.3-0.6-0.4-1c-0.1-0.4-0.1-0.8-0.1-1.2v-5.2c0-0.2,0-0.4,0.1-0.5
			c0.1-0.1,0.3-0.2,0.5-0.2h0.1c0.1,0,0.2,0,0.4,0s0.2,0.1,0.3,0.1c0.1,0.1,0.2,0.1,0.3,0.2s0.1,0.2,0.1,0.3v5.1c0,0.2,0,0.3,0,0.5
			c0,0.2,0,0.3,0.1,0.5c0,0.1,0.1,0.3,0.2,0.3c0.1,0.1,0.2,0.1,0.4,0.1c0.3,0,0.6-0.1,0.9-0.3c0.3-0.2,0.6-0.4,0.9-0.7
			c0.3-0.3,0.5-0.7,0.6-1.1c0.2-0.4,0.2-0.9,0.2-1.5v-3c0-0.2,0-0.4,0.1-0.5c0.1-0.1,0.3-0.2,0.5-0.2h0.1c0.1,0,0.2,0,0.4,0.1
			c0.1,0,0.2,0.1,0.3,0.2c0.1,0.1,0.2,0.1,0.3,0.2c0.1,0.1,0.1,0.2,0.1,0.3V35c0,0.2,0.1,0.3,0.1,0.4c0,0.1,0.1,0.2,0.3,0.2
			c0.1,0,0.2,0,0.4-0.1c0.2-0.1,0.3-0.2,0.4-0.3c0.1-0.1,0.2-0.2,0.3-0.2c0.1,0,0.2-0.1,0.3-0.1c0.1,0,0.2,0,0.3,0.1
			c0.1,0.1,0.2,0.2,0.3,0.3c0.1,0.1,0.1,0.2,0.2,0.3c0.1,0.1,0.1,0.2,0.1,0.2v0c0,0.1,0,0.3-0.1,0.4c-0.1,0.1-0.2,0.2-0.3,0.3l0,0
			c-0.2,0.2-0.5,0.3-0.8,0.5c-0.3,0.2-0.7,0.2-1.2,0.2c-0.3,0-0.6,0-0.8-0.1c-0.2,0-0.4-0.1-0.6-0.2c-0.2-0.1-0.3-0.3-0.4-0.5
			c-0.1-0.2-0.2-0.5-0.3-0.8C53.1,35.7,53.1,35.7,53.1,35.7z"/>
		<path class="st0" d="M65.8,30.6c0,0.1,0,0.3,0,0.4v0.3c0,0.7-0.1,1.5-0.4,2.2c-0.3,0.7-0.6,1.4-1,1.9c-0.4,0.6-0.9,1-1.5,1.4
			c-0.6,0.4-1.2,0.5-1.8,0.5c-0.1,0-0.2,0-0.3,0c-0.1,0-0.2,0-0.3,0v6.1c0,0.2-0.1,0.4-0.1,0.5c-0.1,0.1-0.2,0.2-0.5,0.2h-0.1
			c-0.1,0-0.2,0-0.4,0c-0.1,0-0.2-0.1-0.3-0.1s-0.2-0.1-0.3-0.2c-0.1-0.1-0.1-0.2-0.1-0.3V28.9c0-0.2,0-0.4,0.1-0.5
			c0.1-0.1,0.2-0.2,0.5-0.2h0.1c0.1,0,0.2,0,0.4,0s0.2,0.1,0.3,0.1c0.1,0.1,0.2,0.1,0.3,0.2c0.1,0.1,0.1,0.2,0.1,0.3V30
			c0.4-0.5,0.8-1,1.3-1.3c0.5-0.3,1-0.5,1.5-0.5c0.7,0,1.2,0.2,1.7,0.6c0.4,0.4,0.7,0.9,0.8,1.6C65.8,30.4,65.8,30.5,65.8,30.6z
			 M64.1,30.9c0-0.1,0-0.2,0-0.3c-0.1-0.3-0.1-0.4-0.3-0.6c-0.1-0.1-0.3-0.2-0.4-0.2c-0.3,0-0.6,0.1-0.9,0.2
			c-0.3,0.2-0.6,0.4-0.9,0.7s-0.5,0.7-0.7,1.1c-0.2,0.4-0.3,0.9-0.3,1.5V35c0,0.1,0,0.1,0,0.2c0,0.1,0,0.1,0,0.1
			c0,0.1,0.1,0.2,0.2,0.3c0.1,0.1,0.3,0.1,0.4,0.1c0.4,0,0.7-0.1,1.1-0.4c0.3-0.3,0.6-0.6,0.9-1c0.3-0.4,0.5-0.9,0.6-1.4
			c0.2-0.5,0.2-1,0.3-1.5v-0.2C64.1,31.1,64.1,31,64.1,30.9z"/>
		<path class="st0" d="M73.5,35.6c0.1,0,0.2,0,0.3,0c0.1,0,0.2,0,0.4-0.1c0.2-0.1,0.3-0.2,0.4-0.3c0.1-0.1,0.2-0.2,0.3-0.2
			c0.1,0,0.2-0.1,0.3-0.1c0.1,0,0.2,0,0.3,0.1c0.1,0.1,0.2,0.2,0.3,0.3c0.1,0.1,0.1,0.2,0.2,0.3c0.1,0.1,0.1,0.2,0.1,0.2v0
			c0,0.1,0,0.3-0.1,0.4c-0.1,0.1-0.2,0.2-0.3,0.3l0,0c-0.2,0.2-0.5,0.3-0.8,0.5c-0.3,0.2-0.7,0.2-1.2,0.2c-0.2,0-0.3,0-0.4,0
			c-0.1,0-0.3-0.1-0.4-0.2c-0.2-0.1-0.3-0.3-0.5-0.4c-0.2-0.2-0.4-0.4-0.7-0.8c-0.3-0.3-0.5-0.7-0.9-1.2c-0.3-0.5-0.7-1-1.2-1.7
			l-0.2,0.2v3.4c0,0.2,0,0.4-0.1,0.5c-0.1,0.1-0.2,0.2-0.5,0.2h-0.1c-0.1,0-0.2,0-0.3,0c-0.1,0-0.2-0.1-0.3-0.1s-0.2-0.1-0.3-0.2
			c-0.1-0.1-0.1-0.2-0.1-0.3v-13c0-0.2,0-0.4,0.1-0.5c0.1-0.1,0.3-0.2,0.5-0.2h0.1c0.1,0,0.2,0,0.4,0c0.1,0,0.2,0.1,0.3,0.1
			c0.1,0.1,0.2,0.1,0.3,0.2c0.1,0.1,0.1,0.2,0.1,0.3v7.2l2.6-2.5l0,0c0.1-0.1,0.1-0.1,0.2-0.1c0.1,0,0.1-0.1,0.2-0.1
			c0.1,0,0.3,0.1,0.5,0.2c0.2,0.1,0.3,0.2,0.4,0.3l0,0.1h0c0.1,0.1,0.2,0.2,0.2,0.4s0,0.2-0.1,0.3c0,0.1-0.1,0.1-0.2,0.2L70.7,32
			l1.2,1.7L73.5,35.6z"/>
		<path class="st0" d="M84,35.5C84,35.6,84.1,35.6,84,35.5L84,35.5L84,35.5c0.1,0.1,0.2,0.2,0.3,0.2c0.1,0,0.2,0,0.4-0.1
			c0.2-0.1,0.3-0.2,0.4-0.3c0.1-0.1,0.2-0.2,0.3-0.2s0.2-0.1,0.3-0.1c0.1,0,0.2,0,0.3,0.1c0.1,0.1,0.2,0.2,0.3,0.3
			c0.1,0.1,0.1,0.2,0.2,0.3c0.1,0.1,0.1,0.2,0.1,0.2v0c0,0.1,0,0.3-0.1,0.4c-0.1,0.1-0.2,0.2-0.3,0.3l0,0c-0.2,0.2-0.5,0.3-0.8,0.5
			c-0.3,0.2-0.7,0.2-1.2,0.2c-0.2,0-0.4,0-0.6-0.1c-0.5,0-0.8-0.2-1-0.4c-0.2-0.2-0.3-0.6-0.3-1.1v-0.2c-0.4,0.5-0.9,0.9-1.4,1.3
			c-0.5,0.3-1,0.5-1.5,0.5c-0.7,0-1.3-0.2-1.7-0.5c-0.4-0.4-0.7-0.9-0.8-1.5c0-0.1,0-0.3,0-0.5c0-0.2,0-0.4,0-0.5
			c0-0.7,0.1-1.4,0.4-2.1c0.3-0.7,0.6-1.3,1-1.9c0.4-0.6,0.9-1,1.5-1.4c0.6-0.3,1.2-0.5,1.8-0.5c0.1,0,0.3,0,0.4,0
			c0.1,0,0.3,0.1,0.4,0.1c0.1-0.2,0.3-0.2,0.5-0.2h0.1c0.1,0,0.2,0,0.4,0c0.1,0,0.2,0.1,0.3,0.1c0.1,0.1,0.2,0.1,0.3,0.2
			C84,28.9,84,29,84,29.1V35.5z M79.4,35.7c0.3,0,0.6-0.1,0.8-0.3c0.3-0.2,0.5-0.4,0.8-0.7c0.2-0.3,0.4-0.6,0.6-0.9
			c0.2-0.3,0.3-0.6,0.4-0.8c0.1-0.5,0.2-1,0.3-1.3c0.1-0.4,0.1-0.7,0.1-0.9c0-0.2-0.1-0.4-0.2-0.5c-0.1-0.1-0.3-0.2-0.6-0.2
			c-0.4,0-0.7,0.1-1.1,0.4c-0.3,0.3-0.7,0.6-0.9,1c-0.3,0.4-0.5,0.8-0.7,1.3c-0.2,0.5-0.3,1-0.3,1.5c0,0.1,0,0.2,0,0.3
			c0,0.1,0,0.2,0,0.4C78.7,35.5,79,35.7,79.4,35.7z"/>
		<path class="st0" d="M93.8,35.6c0.1,0,0.2,0,0.3,0c0.1,0,0.2,0,0.4-0.1c0.2-0.1,0.3-0.2,0.4-0.3c0.1-0.1,0.2-0.2,0.3-0.2
			c0.1,0,0.2-0.1,0.3-0.1c0.1,0,0.2,0,0.3,0.1c0.1,0.1,0.2,0.2,0.3,0.3c0.1,0.1,0.1,0.2,0.2,0.3c0.1,0.1,0.1,0.2,0.1,0.2v0
			c0,0.1,0,0.3-0.1,0.4c-0.1,0.1-0.2,0.2-0.3,0.3l0,0c-0.2,0.2-0.5,0.3-0.8,0.5c-0.3,0.2-0.7,0.2-1.2,0.2c-0.2,0-0.3,0-0.4,0
			c-0.1,0-0.3-0.1-0.4-0.2c-0.2-0.1-0.3-0.3-0.5-0.4c-0.2-0.2-0.4-0.4-0.7-0.8c-0.3-0.3-0.5-0.7-0.9-1.2c-0.3-0.5-0.7-1-1.2-1.7
			l-0.2,0.2v3.4c0,0.2,0,0.4-0.1,0.5c-0.1,0.1-0.2,0.2-0.5,0.2h-0.1c-0.1,0-0.2,0-0.3,0c-0.1,0-0.2-0.1-0.3-0.1S88,37.1,87.9,37
			c-0.1-0.1-0.1-0.2-0.1-0.3v-13c0-0.2,0-0.4,0.1-0.5c0.1-0.1,0.3-0.2,0.5-0.2h0.1c0.1,0,0.2,0,0.4,0c0.1,0,0.2,0.1,0.3,0.1
			c0.1,0.1,0.2,0.1,0.3,0.2c0.1,0.1,0.1,0.2,0.1,0.3v7.2l2.6-2.5l0,0c0.1-0.1,0.1-0.1,0.2-0.1c0.1,0,0.1-0.1,0.2-0.1
			c0.1,0,0.3,0.1,0.5,0.2c0.2,0.1,0.3,0.2,0.4,0.3l0,0.1h0c0.1,0.1,0.2,0.2,0.2,0.4s0,0.2-0.1,0.3c0,0.1-0.1,0.1-0.2,0.2L91,32
			l1.2,1.7L93.8,35.6z"/>
		<path class="st0" d="M102.4,32c-0.3,0.4-0.6,0.8-1.1,1c-0.4,0.3-0.9,0.5-1.3,0.7c-0.5,0.2-0.9,0.3-1.2,0.3c0,0.1,0,0.2,0,0.2
			c0,0.1,0,0.1,0,0.2c0.1,0.2,0.1,0.4,0.2,0.6c0.1,0.2,0.2,0.3,0.4,0.4c0.1,0.1,0.3,0.1,0.4,0.2c0.2,0,0.3,0.1,0.5,0.1
			c0.3,0,0.5,0,0.7-0.1c0.2-0.1,0.4-0.2,0.5-0.3l0,0c0.1-0.1,0.2-0.2,0.3-0.2c0.1,0,0.1,0,0.2,0h0.1c0.1,0,0.1,0,0.2,0.1
			c0.1,0.1,0.2,0.1,0.3,0.3c0.1,0.1,0.2,0.2,0.2,0.3s0.1,0.2,0.1,0.3v0c0,0.1,0,0.2-0.1,0.3c-0.1,0.1-0.1,0.2-0.2,0.3
			c-0.4,0.3-0.8,0.5-1.1,0.6c-0.4,0.1-0.8,0.2-1.2,0.2c-0.4,0-0.7,0-1.1-0.1c-0.3-0.1-0.6-0.2-0.9-0.4c-0.3-0.2-0.5-0.5-0.7-0.8
			c-0.2-0.3-0.3-0.7-0.4-1.2c0-0.2-0.1-0.4-0.1-0.6c0-0.2,0-0.5,0-0.7c0-0.6,0.1-1.2,0.3-1.9c0.2-0.6,0.4-1.2,0.7-1.6
			c0.3-0.5,0.7-0.9,1.1-1.2c0.4-0.3,0.9-0.4,1.4-0.4c0.6,0,1.2,0.2,1.6,0.6c0.4,0.4,0.6,0.9,0.6,1.6C102.8,31.1,102.6,31.6,102.4,32
			z M99.8,32.1c0.3-0.1,0.5-0.3,0.7-0.4c0.2-0.2,0.3-0.3,0.4-0.5c0.1-0.2,0.2-0.3,0.2-0.5c0-0.2-0.1-0.3-0.2-0.4
			c-0.1-0.1-0.2-0.1-0.4-0.1c-0.2,0-0.4,0.1-0.5,0.2c-0.2,0.1-0.3,0.3-0.5,0.5c-0.1,0.2-0.3,0.4-0.4,0.7c-0.1,0.3-0.2,0.5-0.3,0.8
			C99.2,32.3,99.5,32.2,99.8,32.1z"/>
		<path class="st0" d="M109,29.6c0,0.2-0.1,0.4-0.2,0.5c-0.1,0.2-0.2,0.3-0.3,0.4c-0.1,0-0.1,0.1-0.3,0.1c-0.1,0-0.1,0-0.2,0
			c-0.1,0-0.1-0.1-0.2-0.1h0c-0.1-0.1-0.3-0.1-0.5-0.2s-0.5-0.1-0.8-0.1c-0.2,0-0.3,0-0.5,0.1c-0.2,0.1-0.3,0.2-0.3,0.4
			c0,0.2,0.1,0.4,0.2,0.5c0.1,0.1,0.3,0.3,0.5,0.4l1.1,0.7c0.2,0.1,0.4,0.3,0.6,0.5c0.2,0.2,0.4,0.4,0.6,0.6
			c0.2,0.2,0.3,0.5,0.4,0.8c0.1,0.3,0.2,0.6,0.2,0.9c0,0.5-0.1,0.8-0.2,1.1c-0.1,0.3-0.3,0.6-0.6,0.8c-0.3,0.2-0.6,0.3-0.9,0.4
			c-0.3,0.1-0.7,0.1-1.1,0.1c-0.2,0-0.4,0-0.6-0.1c-0.2,0-0.4-0.1-0.7-0.2s-0.4-0.1-0.6-0.2c-0.2-0.1-0.4-0.2-0.5-0.3l0,0
			c-0.2-0.1-0.3-0.2-0.3-0.3s-0.1-0.2-0.1-0.3v0c0-0.1,0.1-0.3,0.2-0.4s0.2-0.3,0.3-0.4l0,0c0.1-0.1,0.1-0.1,0.2-0.1
			c0.1,0,0.1,0,0.2,0c0.1,0,0.1,0,0.2,0c0.1,0,0.1,0.1,0.2,0.1c0.2,0.1,0.4,0.3,0.7,0.4c0.3,0.1,0.5,0.1,0.7,0.1
			c0.4,0,0.7-0.1,0.9-0.2s0.3-0.4,0.3-0.6c0-0.3-0.1-0.5-0.3-0.7c-0.2-0.2-0.4-0.4-0.6-0.5l-1.2-0.8c-0.4-0.3-0.7-0.6-1-1
			c-0.3-0.4-0.4-0.8-0.4-1.3c0-0.4,0.1-0.7,0.2-1c0.1-0.3,0.3-0.5,0.5-0.7c0.2-0.2,0.5-0.3,0.7-0.4c0.3-0.1,0.5-0.1,0.8-0.1
			c0.4,0,0.8,0,1.2,0.1c0.4,0.1,0.7,0.2,1,0.3v0c0.1,0.1,0.2,0.1,0.3,0.2C108.9,29.3,108.9,29.4,109,29.6L109,29.6z"/>
	</g>
</g>
</svg>
